<svg width="269" height="176" viewBox="0 0 269 176" fill="none" xmlns="http://www.w3.org/2000/svg">
<g clip-path="url(#clip0_120_2434)">
<path d="M75.3954 163.588C110.087 167.104 112.758 154.563 149.794 159.149C172.882 162.008 178.652 167.723 203.096 167.655C219.422 167.61 235.432 167.347 249.732 156.56C261.259 147.866 273.346 133.99 267.459 118.744C263.951 109.658 255.418 103.033 253.316 93.3379C251.49 84.9197 254.647 76.2336 257.058 68.2578C261.391 53.9268 268.853 33.0937 257.189 20.0342C242.282 3.35719 223.457 23.1917 210.454 31.7312C180.16 51.6263 155.966 25.0927 129.888 12.4908C111.685 3.69847 88.9718 -2.15632 68.6792 0.75338C46.0315 4.00435 45.9227 18.0321 50.2965 36.6354C51.9255 43.5621 54.8042 52.5035 52.3682 59.5869C48.3234 71.3369 36.4771 68.7912 26.8064 71.7111C21.3222 73.3669 15.9821 75.6193 11.5831 79.3733C2.36771 87.2328 -0.84238 99.4454 0.184647 111.185C3.52628 149.401 43.4538 160.349 75.3954 163.588Z" fill="url(#paint0_linear_120_2434)"/>
<path d="M61.2701 145.834C111.567 145.834 161.866 145.834 212.162 145.834C212.453 145.834 212.708 145.581 212.789 145.303C212.87 145.025 212.754 144.696 212.509 144.542C208.929 142.307 205.35 140.108 201.768 137.873C201.664 137.81 201.545 137.807 201.424 137.807C158.286 137.807 115.146 137.807 72.0083 137.807C71.8869 137.807 71.768 137.792 71.6643 137.858C68.0849 140.093 64.5055 142.302 60.9235 144.534C60.6781 144.689 60.5618 145.035 60.6427 145.313C60.7237 145.594 60.9792 145.834 61.2701 145.834Z" fill="#3A6A25"/>
<path d="M37.1425 161.055C103.525 161.055 169.905 161.055 236.287 161.055C236.578 161.055 236.833 160.718 236.914 160.44C236.995 160.16 236.879 159.791 236.634 159.636C233.054 157.402 229.475 155.266 225.893 153.031C225.789 152.968 225.67 153.028 225.549 153.028C166.328 153.028 107.104 153.028 47.8833 153.028C47.7619 153.028 47.643 152.93 47.5393 152.995C43.9599 155.23 40.3805 157.397 36.7985 159.631C36.5531 159.786 36.4368 160.195 36.5177 160.473C36.5987 160.754 36.8516 161.055 37.1425 161.055Z" fill="#3A6A25"/>
<path d="M260.758 174.62C257.179 172.385 253.599 170.229 250.017 167.994C249.914 167.931 249.795 167.974 249.673 167.974C174.367 167.974 99.0622 167.974 23.7554 167.974C23.634 167.974 23.5151 167.931 23.4114 167.994C19.8319 170.229 16.2525 172.423 12.6706 174.658C12.4252 174.812 12.3088 175.178 12.3898 175.459C12.4707 175.737 12.7262 176 13.0171 176C95.4828 176 177.946 176 260.412 176C260.703 176 260.958 175.719 261.039 175.441C261.12 175.161 261.006 174.774 260.758 174.62Z" fill="#3A6A25"/>
<g opacity="0.4">
<g opacity="0.4">
<path opacity="0.4" d="M104.509 123.145C105.273 121.302 105.735 119.366 106.621 117.571C108.5 113.764 111.29 110.879 113.995 107.704C115.854 105.523 119.029 101.652 116.426 98.8716C115.148 97.5065 113.064 97.3346 111.336 97.5419C106.115 98.1688 104.23 99.4277 105.389 93.2392C106.031 89.8037 107.86 86.7145 108.579 83.3346C109.305 79.9168 109.651 69.9819 106.004 67.6385C99.5252 63.4749 95.4728 79.2065 94.4736 82.8088C94.4356 82.9403 94.4128 83.0869 94.3977 83.2411C94.3547 83.6608 94.0385 83.9995 93.6211 84.0703C93.2062 84.1411 92.7939 83.9237 92.6168 83.5419C92.3689 83.0035 92.1741 82.4979 92.1514 82.0707C92.0451 79.98 92.6952 77.677 93.2416 75.6749C93.9828 72.9649 95.0022 70.3282 96.0773 67.7371C97.2966 64.792 98.015 61.7205 96.9602 58.6212C95.923 55.5724 93.7804 53.0521 91.863 50.519C89.3308 47.1745 87.55 42.6141 83.5861 40.6599C78.9037 38.3519 74.2037 41.8456 71.6918 45.7311C67.6241 52.0257 69.8983 58.9448 72.9768 65.0877C75.1574 69.4384 80.6998 76.0414 80.5657 81.378C80.5581 81.6991 80.3861 81.9948 80.1078 82.1591C79.8321 82.3235 79.4906 82.3361 79.2022 82.1895C78.2384 81.6965 77.472 80.832 76.6625 79.932C73.799 76.7518 71.3073 73.1823 68.7397 69.7645C66.9715 67.4109 64.495 63.2499 61.2166 62.9541C57.3766 62.6078 57.4348 69.9111 57.7384 72.1787C59.2916 83.7973 70.0804 89.5863 75.7771 98.9019C76.9509 100.821 79.5032 104.317 79.2376 106.653C78.7267 111.147 73.2171 106.177 70.8165 105.437C67.485 104.408 61.6492 104.39 61.6062 108.958C61.5556 114.267 66.1418 118.838 70.9177 120.43C74.7501 121.707 79.1289 122.147 82.7614 123.931C86.0853 125.562 84.0945 129.235 80.7605 128.219C79.3844 127.799 78.0082 127.251 76.6701 126.725C75.3724 126.217 71.5476 124.118 70.5964 126.067C69.8704 127.556 71.3781 130.158 71.9776 131.427C78.6963 145.652 84.2311 143.04 91.992 145.821C94.2206 146.62 95.7282 148.427 96.5327 150.604C96.8792 151.544 96.8438 155.071 97.9164 155.389C99.3937 155.824 101.46 152.758 102.095 151.881C103.269 150.255 104.693 148.839 105.867 147.211C107.891 144.403 111.202 140.252 110.833 136.538C110.648 134.698 109.064 133.96 107.354 133.823C104.461 133.593 99.8692 133.052 101.713 129.063C102.632 127.081 103.674 125.16 104.509 123.145Z" fill="#1E8135"/>
<path opacity="0.4" d="M98.6296 155.266C98.4095 155.266 98.2299 155.089 98.2249 154.869C98.2223 154.677 97.8176 135.393 93.5451 122.455C89.2953 109.585 86.3458 84.409 87.1097 77.6492C87.7775 71.7515 85.4275 47.043 80.3278 41.4183C79.6574 40.6801 78.977 40.3111 78.2838 40.3212C78.0537 40.3212 77.8766 40.1467 77.8741 39.9243C77.8715 39.7018 78.0486 39.5173 78.2712 39.5147C79.1996 39.5072 80.0925 39.9597 80.9248 40.8773C86.5077 47.0329 88.5061 72.4947 87.9116 77.7402C87.2337 83.7315 89.8265 108.617 94.3115 122.202C98.622 135.257 99.0268 154.659 99.0318 154.854C99.0369 155.076 98.8573 155.261 98.6347 155.266C98.6347 155.266 98.6321 155.266 98.6296 155.266Z" fill="#1E8135"/>
</g>
<g opacity="0.4">
<path opacity="0.4" d="M85.3267 131.222C83.5104 131.718 77.6493 136.576 77.925 132.443C78.2766 127.134 84.0669 122.908 84.4944 117.465C84.7449 114.295 81.7928 112.401 78.9242 111.84C73.8928 110.854 72.1271 120.782 69.6203 124.126C69.0941 124.829 68.5224 111.056 68.4061 110.493C68.062 108.85 67.2146 105.844 65.4919 105.088C61.3282 103.265 59.7193 108.67 59.2463 111.787C59.2185 111.969 59.0869 112.118 58.9099 112.169C58.7328 112.219 58.5431 112.159 58.4242 112.017C55.7681 108.845 57.8069 105.485 56.3069 101.812C54.2402 96.7482 49.9348 101.925 48.1893 104.34C45.1968 108.48 44.6478 114.05 49.3352 117.285C53.6407 120.256 55.7706 122.167 52.9425 122.946C49.2366 123.967 46.2719 127.923 48.1311 131.68C50.0764 135.608 56.0767 137.679 59.9293 139.082C61.4471 139.633 65.4186 139.592 65.7247 141.703C65.9801 143.468 63.3165 144.264 62.1124 144.888C57.5692 147.249 56.5573 149.651 61.566 152.717C71.6743 158.906 82.8224 157.159 82.7111 152.49C82.6605 150.286 84.1479 147.603 84.8461 145.589C85.5948 143.43 86.336 141.266 86.9178 139.056C87.5072 136.817 89.5866 130.062 85.3267 131.222Z" fill="#1E8135"/>
<path opacity="0.4" d="M81.6463 155.195C81.4819 155.195 81.3276 155.094 81.2669 154.932C81.1859 154.715 73.0759 133.035 64.7737 126.644C58.2549 121.626 53.3069 113.847 52.7454 107.727C52.4595 104.628 53.2336 102.034 55.0448 100.014C55.1941 99.8475 55.4495 99.8349 55.614 99.984C55.7809 100.133 55.7936 100.388 55.6443 100.553C53.9899 102.398 53.2842 104.785 53.5473 107.651C54.0911 113.564 58.9101 121.11 65.2645 126.002C68.8363 128.75 72.742 134.412 76.878 142.828C79.9464 149.075 82.003 154.593 82.0232 154.649C82.1016 154.859 81.9929 155.091 81.7854 155.167C81.7399 155.187 81.6944 155.195 81.6463 155.195Z" fill="#1E8135"/>
</g>
</g>
<g opacity="0.38">
<g opacity="0.38">
<g opacity="0.38">
<path opacity="0.38" d="M173.084 141.625C167.756 138.629 162.601 133.846 158.422 129.258C156.712 127.379 153.801 124.391 153.631 121.558C153.411 117.884 160.337 118.274 162.578 118.739C164.311 119.098 166.35 120.567 168.146 120.223C172.388 119.409 167.506 114.017 166.304 112.849C164.051 110.654 160.962 108.435 159.626 105.409C159.012 104.013 158.951 102.628 159.98 101.427C163.158 97.7137 167.041 100.411 169.808 102.815C171.66 104.423 175.001 104.81 172.793 101.491C170.747 98.4165 167.635 96.1262 165.401 93.1811C164.352 91.7983 162.477 90.1323 162.303 88.249C162.08 85.8449 164.283 85.0739 166.158 85.539C168.561 86.1331 170.256 87.9456 171.887 89.8088C173.651 91.8236 177.045 93.4794 176.461 89.202C176.107 86.6083 175.024 84.3054 174.217 81.8684C173.547 79.846 169.244 68.7482 175.358 71.3824C176.8 72.0043 177.779 73.6222 179.034 74.555C181.629 76.4838 181.391 73.4907 180.875 71.5796C180.056 68.546 176.643 64.8021 178.5 61.412C180.271 58.1813 185.345 59.5692 187.991 60.4489C191.457 61.6016 195.119 63.2676 194.818 67.8735C194.55 71.9638 191.568 75.5004 190.187 79.209C189.354 81.4437 187.419 88.3198 190.814 89.0807C193.817 89.7531 195.856 85.9485 197.945 84.4697C201.585 81.8912 204.208 86.1963 204.643 89.5054C205.165 93.4591 203.578 96.6621 201.233 99.5794C199.721 101.46 197.806 102.886 196.124 104.575C195.117 105.586 190.943 110.508 194.621 110.611C197.512 110.692 198.754 106.658 201.388 106.16C205.243 105.432 205.139 110.932 203.69 113.114C202.002 115.652 199.159 117.093 196.845 118.85C193.976 121.024 190.675 123.357 188.884 126.684C186.63 130.873 192.577 127.604 193.756 126.821C195.704 125.526 199.174 122.794 201.509 124.637C204.411 126.927 200.401 133.014 198.947 134.963C195.17 140.024 189.43 143.5 183.367 144.031C179.512 144.37 176.157 143.354 173.084 141.625Z" fill="#1E8135"/>
<path opacity="0.38" d="M181.121 145.103C180.938 145.103 180.769 144.992 180.701 144.812C180.653 144.683 175.867 131.718 178.674 115.7C178.94 114.194 179.241 112.492 179.57 110.647C181.164 101.68 183.347 89.4018 184.781 79.118C185.563 73.5059 186.038 69.0668 186.195 65.9245C186.443 60.9065 185.818 60.3023 185.692 60.2315C185.474 60.1127 185.396 59.8397 185.515 59.6223C185.633 59.4048 185.907 59.3265 186.124 59.4453C187.184 60.0293 187.958 62.8378 185.671 79.2418C184.235 89.5433 182.052 101.832 180.455 110.804C180.126 112.649 179.825 114.348 179.56 115.854C176.792 131.634 181.492 144.37 181.541 144.496C181.629 144.729 181.51 144.987 181.28 145.075C181.227 145.093 181.171 145.103 181.121 145.103Z" fill="#1E8135"/>
</g>
</g>
<g opacity="0.38">
<path opacity="0.38" d="M192.853 152.217C192.481 150.227 190.639 148.099 189.627 146.42C188.545 144.623 187.472 142.818 186.529 140.939C185.575 139.036 182.428 133.361 186.475 133.598C188.201 133.699 194.386 136.96 193.359 133.297C192.038 128.593 186.035 125.888 184.621 121.08C183.797 118.279 186.091 116.019 188.562 114.972C192.898 113.137 196.361 121.724 199.248 124.257C199.855 124.791 197.763 112.305 197.763 111.777C197.763 110.235 197.955 107.373 199.359 106.369C203.141 103.667 205.774 109.625 206.53 112.052C209.212 108.311 206.293 105.553 206.996 101.69C207.896 96.7505 212.743 100.588 214.769 102.428C218.242 105.583 219.788 110.487 216.186 114.279C212.88 117.76 211.324 119.881 214.013 120.048C217.537 120.266 220.949 123.261 219.988 126.988C218.984 130.886 213.983 133.879 210.785 135.868C209.525 136.652 205.948 137.362 206.072 139.316C206.176 140.95 208.721 141.162 209.92 141.496C214.451 142.76 215.814 144.726 211.893 148.427C203.983 155.897 193.634 156.433 192.853 152.217Z" fill="#1E8135"/>
<path opacity="0.38" d="M194.241 154.532C194.218 154.532 194.198 154.53 194.175 154.527C193.93 154.492 193.76 154.262 193.798 154.017C193.927 153.145 197.051 132.557 203.456 125.069C208.23 119.487 211.126 111.82 210.499 106.423C210.195 103.819 209.12 101.824 207.301 100.492C207.102 100.345 207.059 100.065 207.205 99.865C207.352 99.6653 207.633 99.6223 207.833 99.7689C209.861 101.253 211.058 103.457 211.389 106.319C212.044 111.944 209.062 119.894 204.139 125.65C197.901 132.946 194.717 153.938 194.686 154.148C194.651 154.373 194.461 154.532 194.241 154.532Z" fill="#1E8135"/>
</g>
</g>
<path d="M98.2223 148.205C98.2223 144.603 95.3006 141.683 91.6959 141.683H88.9639C85.3592 141.683 82.4375 144.603 82.4375 148.205V165.603C82.4375 169.205 85.3592 172.125 88.9639 172.125H91.6959C95.3006 172.125 98.2223 169.205 98.2223 165.603V148.205Z" fill="url(#paint1_linear_120_2434)"/>
<path d="M187.948 148.205C187.948 144.603 185.026 141.683 181.422 141.683H178.69C175.085 141.683 172.163 144.603 172.163 148.205V165.603C172.163 169.205 175.085 172.125 178.69 172.125H181.422C185.026 172.125 187.948 169.205 187.948 165.603V148.205Z" fill="url(#paint2_linear_120_2434)"/>
<path d="M90.884 115.619C90.6892 115.576 90.4692 115.402 90.4692 115.202V113.862C90.4692 112.571 89.8216 111.39 88.6681 110.809C87.1781 110.058 85.4681 110.033 83.9579 110.738L81.2335 112.035C79.908 112.654 79.1162 113.981 79.1162 115.442V116.464C79.1162 118.344 80.4721 119.937 82.3389 120.19L93.7501 121.745L95.1161 116.542L90.884 115.619Z" fill="#184655"/>
<path d="M179.942 115.619C180.137 115.576 180.193 115.402 180.193 115.202V113.862C180.193 112.571 181.005 111.39 182.158 110.809C183.648 110.058 185.439 110.033 186.949 110.738L189.689 112.035C191.014 112.654 191.821 113.981 191.821 115.442V116.464C191.821 118.344 190.491 119.937 188.624 120.19L177.225 121.745L175.786 116.542L179.942 115.619Z" fill="#184655"/>
<path d="M188.376 127.119C186.721 121.537 178.171 116.36 178.171 116.36C178.171 116.36 171 94.3591 163.279 94.3591C157.079 94.3591 142.19 94.3591 136.562 94.3591C136.562 94.3591 135.737 94.3591 134.356 94.3591C128.722 94.3591 113.808 94.3591 107.605 94.3591C99.882 94.3591 92.7131 116.36 92.7131 116.36C92.7131 116.36 84.163 121.53 82.5086 127.112C81.2994 131.192 83.9227 146.852 85.4202 154.952C85.9489 157.806 88.6455 159.95 91.7923 159.95H134.356H136.562H179.092C182.241 159.95 184.936 157.814 185.464 154.957C186.964 146.858 189.585 131.199 188.376 127.119Z" fill="#1E8135"/>
<path d="M187.303 150.601C186.823 150.05 186.089 149.709 185.312 149.709H85.5746C84.803 149.709 84.072 150.048 83.5913 150.591C83.1107 151.135 82.9286 151.858 83.1006 152.538L84.7322 159.007C84.9953 160.048 86.0223 160.779 87.2062 160.779H183.595C184.769 160.779 185.791 160.069 186.064 159.037L187.776 152.555C187.958 151.873 187.784 151.15 187.303 150.601Z" fill="#184655"/>
<path d="M108.506 140.51C108.506 140.51 106.024 133.067 102.897 132.425C99.7709 131.783 86.5334 129.025 86.2576 131.323C85.9819 133.621 83.3157 141.521 91.2207 142.257C99.1283 142.99 109.781 143.594 108.506 140.51Z" fill="#F7CC7F"/>
<path d="M162.379 140.51C162.379 140.51 164.86 133.067 167.987 132.425C171.113 131.783 184.351 129.025 184.627 131.323C184.902 133.621 187.569 141.521 179.663 142.257C171.756 142.99 161.106 143.594 162.379 140.51Z" fill="#F7CC7F"/>
<path d="M160.599 134.089C160.341 133.694 159.903 133.381 159.43 133.381H111.458C110.97 133.381 110.517 133.71 110.264 134.129C110.011 134.546 109.999 135.105 110.226 135.535L112.925 140.725C113.927 142.613 115.89 143.897 118.028 143.897H153.275C155.555 143.897 157.621 142.471 158.55 140.391L160.7 135.494C160.895 135.062 160.854 134.483 160.599 134.089Z" fill="#184655"/>
<path d="M173.661 118.195C173.35 118.671 172.819 118.989 172.249 118.989H98.6375C98.0607 118.989 97.5245 118.66 97.2133 118.173C96.9047 117.685 96.8668 117.055 97.1147 116.532C98.7867 113.013 101.921 106.488 103.679 102.843C103.76 102.679 103.846 102.512 103.947 102.36C104.797 101.013 106.29 100.171 107.909 100.171H163.575C165.21 100.171 166.707 101.025 167.554 102.383C167.673 102.575 167.78 102.78 167.871 102.99L173.795 116.583C174.02 117.101 173.972 117.718 173.661 118.195Z" fill="#8093CA"/>
<path d="M167.552 102.383C163.651 103.151 152.194 105.07 134.909 105.07C117.483 105.07 107.256 103.113 103.944 102.355C104.794 101.008 106.287 100.171 107.906 100.171H163.573C165.207 100.171 166.704 101.023 167.552 102.383Z" fill="#BECEEB"/>
<path d="M107.319 130.388C107.251 130.388 107.183 130.363 107.129 130.312L97.5877 121.29C97.4764 121.186 97.4714 121.012 97.5776 120.9C97.6838 120.789 97.8584 120.784 97.9672 120.89L107.509 129.91C107.62 130.014 107.625 130.188 107.519 130.299C107.466 130.358 107.393 130.388 107.319 130.388Z" fill="url(#paint3_linear_120_2434)"/>
<path d="M162.864 130.388C162.791 130.388 162.718 130.36 162.665 130.302C162.561 130.191 162.566 130.016 162.675 129.913L172.216 120.89C172.328 120.787 172.502 120.792 172.606 120.9C172.71 121.012 172.705 121.186 172.596 121.29L163.054 130.312C162.998 130.363 162.93 130.388 162.864 130.388Z" fill="url(#paint4_linear_120_2434)"/>
<path d="M38.369 84.7124C38.369 84.7124 36.4238 85.6579 36.0671 86.7449C35.7812 87.617 33.6285 87.7283 33.416 89.4422C33.3073 90.327 32.6521 91.0349 31.7693 91.1714C29.5735 91.5076 26.1864 92.6477 25.645 96.4599C25.2327 99.3696 26.7151 100.472 28.2733 100.854C29.4167 101.134 30.1781 102.246 29.9454 103.399C29.7228 104.506 30.0542 105.786 31.9742 106.799C36.2745 109.067 40.5698 101.427 40.5698 101.427L41.4501 88.0847L38.369 84.7124Z" fill="url(#paint5_linear_120_2434)"/>
<path d="M61.7713 81.5498C61.7713 81.5498 53.1832 95.1225 42.9736 97.7465C42.9736 97.7465 44.9644 103.409 46.4999 104.059C46.4999 104.059 59.062 93.583 62.2924 83.4812L61.7713 81.5498Z" fill="url(#paint6_linear_120_2434)"/>
<path d="M20.6923 168.368L20.414 170.653C20.3609 171.088 20.0194 171.429 19.5843 171.48C18.8507 171.563 17.6744 171.649 16.5235 171.528C16.0175 171.475 15.6887 170.964 15.843 170.479C16.1238 169.597 16.6373 168.272 17.3785 167.491H19.9157C20.3837 167.491 20.7479 167.903 20.6923 168.368Z" fill="url(#paint7_linear_120_2434)"/>
<path d="M40.5698 141.584L40.9973 144.102C40.9973 144.102 39.563 158.623 39.3075 164.432C39.2671 165.342 39.5023 166.242 39.9804 167.018L42.4746 171.065L36.1354 167.327L36.0089 166.553L37.0461 165.127L35.6877 148.86C35.6067 147.904 35.804 146.946 36.2568 146.099L37.5672 143.637L40.5698 141.584Z" fill="url(#paint8_linear_120_2434)"/>
<path d="M42.895 171.654H40.8713C40.4919 171.654 40.1352 171.48 39.905 171.182C39.2751 170.363 37.9673 168.765 37.3425 168.722C36.5001 168.666 36.6089 171.654 36.6089 171.654H36.1384L35.5414 167.941C35.3922 167.005 35.8551 166.08 36.6949 165.643C36.6949 165.643 36.8872 167.064 37.9294 167.693C38.9716 168.322 42.1715 170.572 42.1715 170.572C42.1715 170.572 42.5636 170.517 42.9937 170.595C43.6337 170.709 43.5426 171.654 42.895 171.654Z" fill="url(#paint9_linear_120_2434)"/>
<path d="M31.8862 142.78C31.8862 142.78 23.4828 158.711 22.1471 162.349C20.8115 165.987 20.3435 169.02 20.3258 169.308C20.298 169.758 19.7389 170.188 18.1984 170.188C17.4041 170.188 17.0145 169.87 16.8223 169.561C16.6604 169.298 16.6503 168.97 16.7894 168.692C17.2751 167.708 18.8182 164.566 19.3899 163.14C20.0728 161.439 21.54 153.729 22.3444 151.046C23.1489 148.364 24.0595 145.457 27.5631 142.777C27.5631 142.78 29.9687 140.424 31.8862 142.78Z" fill="url(#paint10_linear_120_2434)"/>
<path d="M37.196 116.674C39.3639 107.495 33.8721 102.302 33.8721 102.302C37.3377 98.9778 43.6516 97.4661 43.6516 97.4661C43.6516 97.4661 49.6772 101.867 48.9613 105.313C48.5414 107.333 44.7267 117.409 44.7267 117.409C44.7267 117.409 41.1979 119.078 37.196 116.674Z" fill="#EE745A"/>
<path d="M32.389 121.219C33.2718 118.562 37.1953 116.674 37.1953 116.674C41.1971 119.075 44.726 117.407 44.726 117.407C44.726 117.407 45.5177 120.43 44.9713 123.239C44.4249 126.047 40.9998 144.1 40.9998 144.1C35.6016 145.192 27.2969 143 27.2969 143C30.7346 136.9 31.5062 123.876 32.389 121.219Z" fill="url(#paint11_linear_120_2434)"/>
<path d="M39.7126 91.3988L37.9495 99.3113C37.78 100.009 38.4175 99.8953 39.1207 99.7613C40.2742 99.5439 41.7642 99.0964 42.26 98.199C42.3106 98.108 42.3359 98.0043 42.351 97.9007L43.1074 92.415C43.1681 91.9802 42.9329 91.558 42.5306 91.3785L41.0685 90.7314C40.5095 90.4811 39.8568 90.8022 39.7126 91.3988Z" fill="url(#paint12_linear_120_2434)"/>
<path d="M33.8714 102.302C33.8714 102.302 21.5699 111.097 32.298 120.339C32.298 120.339 32.7078 120.802 33.5122 121.042C33.9195 121.163 35.1211 122.071 35.7307 122.546C35.9255 122.698 36.2088 122.647 36.3403 122.437C36.444 122.273 36.4567 122.066 36.3732 121.891L34.8504 118.673C34.4279 118.279 33.7804 118.251 33.325 118.607C33.0341 118.835 32.6091 118.739 32.4472 118.408C31.6175 116.719 30.0517 111.754 36.4618 106.145C36.7021 105.935 36.7628 105.586 36.6161 105.3C36.1633 104.436 35.1337 102.719 33.8714 102.302Z" fill="url(#paint13_linear_120_2434)"/>
<path d="M43.0894 84.1867C43.0894 84.1867 44.9664 85.4558 45.7734 88.6891C46.5803 91.9223 45.27 93.0801 43.9267 93.0094C42.5835 92.9386 40.6357 92.524 38.9484 90.2033C37.2587 87.8852 40.6281 82.6346 43.0894 84.1867Z" fill="url(#paint14_linear_120_2434)"/>
<path d="M40.6487 88.9013C40.6487 88.9013 39.9606 84.2701 43.8082 84.9779L44.5873 85.7868C44.5873 85.7868 46.4719 83.6659 44.3875 82.0657C42.3031 80.4629 39.4092 80.8725 37.8104 83.7897C36.2092 86.707 35.6299 88.7572 36.9706 90.5698C38.3113 92.3823 39.3206 90.8276 39.3206 90.8276C39.3206 90.8276 38.7059 89.2578 39.2169 88.5853C39.7279 87.9129 40.3856 88.9771 40.3856 88.9771L40.6487 88.9013Z" fill="url(#paint15_linear_120_2434)"/>
<path d="M40.1225 89.2983C40.1225 89.2983 39.7835 86.9144 38.5643 87.597C37.3475 88.277 39.0044 89.8241 39.6672 90.3499L40.1225 89.2983Z" fill="url(#paint16_linear_120_2434)"/>
<path d="M61.7125 84.3432C61.7378 84.6239 60.6956 84.816 60.3643 83.6228C60.4553 83.1045 60.6172 80.8344 61.0144 80.483C63.1317 78.6048 66.9084 76.4939 66.9084 76.4939C67.3308 77.1385 66.7769 77.5632 66.7769 77.5632L64.8923 78.8348C65.0896 79.4845 65.3754 80.0609 65.4083 80.8041C65.4336 81.3678 65.2237 81.9189 64.8518 82.3436C64.4774 82.7708 63.9715 83.3245 63.5162 83.7441C62.6561 84.5404 61.7125 84.3432 61.7125 84.3432Z" fill="url(#paint17_linear_120_2434)"/>
<path d="M62.737 83.418L62.4487 83.2992C62.4866 83.2057 63.3922 81.0089 63.8298 80.5513C63.9968 80.3769 64.0752 80.2303 64.0701 80.1089C64.0651 80.0432 64.0347 79.98 63.974 79.9143L62.4487 80.7283L61.7758 81.7824L61.5127 81.6156L62.2311 80.4932L64.017 79.5376L64.098 79.6033C64.2776 79.7499 64.3712 79.9092 64.3838 80.0887C64.3965 80.301 64.2902 80.5235 64.06 80.7637C63.7261 81.1125 62.9925 82.7987 62.737 83.418Z" fill="url(#paint18_linear_120_2434)"/>
<path d="M33.9627 115.404L33.4416 114.745C33.2974 114.563 33.3303 114.3 33.5124 114.156C33.6946 114.012 33.9576 114.044 34.1018 114.226L34.1044 114.229L34.1119 114.237L34.6128 114.886L34.6204 114.894C34.7595 115.076 34.7266 115.336 34.5445 115.475C34.3624 115.617 34.1018 115.584 33.9627 115.404Z" fill="#95B0DD"/>
<path d="M32.2907 113.154L31.8278 112.452C31.6963 112.252 31.7494 111.981 31.9518 111.85C32.1516 111.719 32.4223 111.772 32.5538 111.974L32.5564 111.979L32.5614 111.989L33.0066 112.677L33.0117 112.687C33.1407 112.886 33.0825 113.152 32.8827 113.281C32.6854 113.407 32.4198 113.352 32.2907 113.154Z" fill="#95B0DD"/>
<path d="M30.8137 110.773L30.409 110.035C30.2901 109.818 30.3685 109.545 30.586 109.426C30.8036 109.307 31.0768 109.385 31.1957 109.603L31.1982 109.608L31.2033 109.618L31.5903 110.341L31.5953 110.351C31.7117 110.568 31.6308 110.836 31.4132 110.953C31.1982 111.066 30.9301 110.986 30.8137 110.773Z" fill="#95B0DD"/>
<path d="M29.5338 108.278L29.1897 107.512C29.0835 107.28 29.1897 107.004 29.4225 106.9C29.6552 106.794 29.9309 106.9 30.0346 107.133L30.0372 107.138L30.0422 107.148L30.3711 107.899L30.3761 107.909C30.4773 108.142 30.3711 108.412 30.1383 108.513C29.9056 108.612 29.6375 108.508 29.5338 108.278Z" fill="#95B0DD"/>
<path d="M28.4534 105.692L28.1676 104.901C28.079 104.653 28.208 104.377 28.4559 104.289C28.7038 104.2 28.9796 104.329 29.0681 104.577L29.0706 104.582L29.0732 104.592L29.3413 105.366L29.3438 105.376C29.4299 105.624 29.2983 105.894 29.0504 105.98C28.8101 106.064 28.542 105.937 28.4534 105.692Z" fill="#95B0DD"/>
<path d="M27.5754 103.03L27.3503 102.218C27.2769 101.956 27.4312 101.685 27.6943 101.612C27.9574 101.538 28.2281 101.693 28.3014 101.956L28.304 101.961L28.3065 101.971L28.5164 102.762L28.519 102.772C28.5873 103.032 28.433 103.3 28.1724 103.369C27.9119 103.442 27.6463 103.288 27.5754 103.03Z" fill="#95B0DD"/>
<path d="M26.8948 100.313L26.7279 99.4884C26.6722 99.2128 26.8518 98.9449 27.125 98.8893C27.4008 98.8337 27.6689 99.0131 27.7246 99.2862V99.2912L27.7271 99.3013L27.8814 100.105L27.8839 100.115C27.9371 100.388 27.7575 100.651 27.4843 100.704C27.2111 100.757 26.948 100.583 26.8948 100.313Z" fill="#95B0DD"/>
<path d="M26.4092 97.552L26.3005 96.7178C26.2625 96.4321 26.4649 96.1692 26.7507 96.1313C27.0366 96.0934 27.2997 96.2956 27.3376 96.5813V96.5863V96.5964L27.4337 97.4104L27.4363 97.4205C27.4692 97.7037 27.2668 97.9615 26.9835 97.9969C26.7002 98.0323 26.4447 97.8326 26.4092 97.552Z" fill="#95B0DD"/>
<path d="M26.1137 94.7636L26.0605 93.9243C26.0428 93.6285 26.268 93.3732 26.5639 93.3555C26.8599 93.3378 27.1154 93.5628 27.1331 93.8585V93.8636V93.8737L27.1761 94.6928V94.7029C27.1913 94.9961 26.9662 95.2464 26.6702 95.2616C26.3793 95.2793 26.1314 95.0543 26.1137 94.7636Z" fill="#95B0DD"/>
<path d="M26.0049 91.9651L26.0074 91.1233C26.0074 90.8174 26.2578 90.5722 26.5614 90.5747C26.8675 90.5747 27.1129 90.825 27.1103 91.1284V91.1334V91.1435L27.0977 91.9626V91.9727C27.0926 92.276 26.8447 92.5162 26.5412 92.5112C26.2452 92.5086 26.0049 92.2634 26.0049 91.9651Z" fill="#95B0DD"/>
<path d="M26.0784 89.1615L26.1366 88.3223C26.1568 88.0113 26.4275 87.7737 26.7411 87.7964C27.0523 87.8167 27.2901 88.0872 27.2673 88.4006V88.4057V88.4158L27.2015 89.2323V89.2424C27.1762 89.5508 26.9056 89.7834 26.597 89.7581C26.2883 89.7354 26.0581 89.47 26.0784 89.1615Z" fill="#95B0DD"/>
<path d="M26.331 86.3708L26.4423 85.5365C26.4853 85.218 26.7762 84.9955 27.095 85.036C27.4137 85.079 27.6363 85.3697 27.5958 85.6882V85.6933L27.5933 85.7034L27.4769 86.5149L27.4744 86.525C27.4289 86.841 27.138 87.0584 26.8218 87.0129C26.5081 86.9724 26.2905 86.6842 26.331 86.3708Z" fill="#95B0DD"/>
<path d="M26.7614 83.5976L26.9258 82.7709C26.989 82.4499 27.3027 82.24 27.624 82.3058C27.9452 82.369 28.1552 82.6824 28.0894 83.0035V83.006L28.0869 83.0161L27.9225 83.82L27.9199 83.8301C27.8542 84.1487 27.5405 84.356 27.2217 84.2902C26.9055 84.227 26.6981 83.9161 26.7614 83.5976Z" fill="#95B0DD"/>
<path d="M27.3734 80.8598L27.591 80.0458C27.677 79.7247 28.0058 79.5351 28.3271 79.6185C28.6483 79.7045 28.8381 80.0331 28.7546 80.3542V80.3567L28.7521 80.3668L28.537 81.1581L28.5345 81.1682C28.4485 81.4867 28.1197 81.6763 27.7984 81.5878C27.4746 81.5044 27.2874 81.1783 27.3734 80.8598Z" fill="#95B0DD"/>
<path d="M28.1527 78.1649L28.4209 77.3661C28.5271 77.0476 28.8737 76.8757 29.1924 76.9818C29.5112 77.088 29.6832 77.4343 29.5769 77.7529V77.7554L29.5744 77.7655L29.3088 78.5416L29.3063 78.5517C29.1975 78.8677 28.8535 79.0371 28.5372 78.9309C28.216 78.8247 28.0465 78.4809 28.1527 78.1649Z" fill="#95B0DD"/>
<path d="M29.1036 75.5256L29.4223 74.747C29.5513 74.431 29.9105 74.2793 30.2267 74.4083C30.5429 74.5372 30.6947 74.8962 30.5657 75.2122L30.5632 75.2147L30.5581 75.2248L30.2444 75.9807L30.2394 75.9908C30.1104 76.3042 29.7512 76.4534 29.4375 76.3219C29.1264 76.1955 28.9771 75.8366 29.1036 75.5256Z" fill="#95B0DD"/>
<path d="M30.2247 72.9498L30.594 72.1914C30.7458 71.8804 31.1177 71.7515 31.4288 71.9032C31.7399 72.0549 31.869 72.4265 31.7172 72.7374L31.7146 72.7399L31.7096 72.7501L31.3479 73.4857L31.3428 73.4958C31.191 73.8042 30.8192 73.9306 30.5105 73.7789C30.2019 73.6273 30.0754 73.2582 30.2247 72.9498Z" fill="#95B0DD"/>
<path d="M31.509 70.4521L31.9264 69.719C32.0984 69.4157 32.4854 69.3095 32.789 69.4839C33.0925 69.6558 33.1988 70.0426 33.0242 70.346L33.0217 70.3485L33.0141 70.3586L32.6043 71.0664L32.5967 71.0765C32.4222 71.3774 32.0377 71.481 31.7367 71.3066C31.4407 71.1347 31.337 70.753 31.509 70.4521Z" fill="#95B0DD"/>
<path d="M32.9637 68.0429L33.4316 67.3401C33.6264 67.0469 34.0236 66.966 34.3195 67.1632C34.613 67.3578 34.6939 67.7547 34.4966 68.0505L34.4941 68.053L34.4865 68.0631L34.0286 68.7406L34.021 68.7507C33.8237 69.0414 33.4291 69.1198 33.1357 68.9226C32.8473 68.7305 32.7689 68.3361 32.9637 68.0429Z" fill="#95B0DD"/>
<path d="M34.5774 65.7424L35.0884 65.075C35.306 64.7919 35.7132 64.7363 35.9966 64.9537C36.2799 65.1711 36.3355 65.5781 36.118 65.8612L36.1154 65.8637L36.1079 65.8738L35.607 66.521L35.5994 66.5311C35.3819 66.8117 34.9771 66.8648 34.6938 66.6474C34.413 66.4275 34.3599 66.023 34.5774 65.7424Z" fill="#95B0DD"/>
<path d="M36.3305 63.5506L36.882 62.9135C37.1198 62.6405 37.5321 62.6102 37.8053 62.8478C38.0785 63.0855 38.1089 63.4975 37.8711 63.7705L37.8685 63.7731L37.861 63.7832L37.3221 64.3975L37.3146 64.4076C37.0768 64.6781 36.6644 64.7059 36.3938 64.4683C36.1231 64.2332 36.0953 63.8211 36.3305 63.5506Z" fill="#95B0DD"/>
<path d="M38.2152 61.4701L38.8046 60.8684C39.0601 60.608 39.48 60.603 39.7405 60.8583C40.0011 61.1136 40.0061 61.5333 39.7506 61.7936L39.7481 61.7962L39.7405 61.8038L39.1638 62.3852L39.1562 62.3928C38.9007 62.6532 38.4808 62.6532 38.2228 62.3978C37.9647 62.145 37.9597 61.7304 38.2152 61.4701Z" fill="#95B0DD"/>
<path d="M40.2185 59.5034L40.8407 58.9371C41.1139 58.6894 41.5389 58.7071 41.7868 58.9826C42.0373 59.2557 42.017 59.6804 41.7413 59.9281L41.7388 59.9306L41.7312 59.9382L41.1215 60.4868L41.1139 60.4944C40.8407 60.7421 40.4183 60.7193 40.1704 60.4438C39.925 60.1708 39.9478 59.7511 40.2185 59.5034Z" fill="#95B0DD"/>
<path d="M42.3309 57.6579L42.9861 57.127C43.277 56.8919 43.7045 56.9349 43.9398 57.2256C44.175 57.5163 44.132 57.9436 43.8411 58.1787L43.8386 58.1812L43.831 58.1888L43.191 58.702L43.1809 58.7095C42.89 58.9421 42.465 58.8966 42.2297 58.6059C41.997 58.3152 42.0425 57.893 42.3309 57.6579Z" fill="#95B0DD"/>
<path d="M44.5447 55.9339L45.2277 55.441C45.5338 55.2185 45.9638 55.2868 46.1864 55.5952C46.409 55.9011 46.3407 56.3308 46.0321 56.5533L46.0296 56.5558L46.0195 56.5634L45.3516 57.0386L45.3415 57.0462C45.0354 57.2662 44.6079 57.1954 44.3878 56.887C44.1728 56.5786 44.2411 56.1539 44.5447 55.9339Z" fill="#95B0DD"/>
<path d="M46.8493 54.3337L47.5576 53.8786C47.8788 53.6714 48.3089 53.7649 48.5163 54.0859C48.7237 54.407 48.6301 54.8368 48.3089 55.0441L48.3064 55.0466L48.2962 55.0516L47.6056 55.4915L47.5955 55.4966C47.2743 55.7013 46.8468 55.6078 46.6419 55.2842C46.437 54.9657 46.5306 54.5385 46.8493 54.3337Z" fill="#95B0DD"/>
<path d="M49.2346 52.8573L49.9657 52.4377C50.3021 52.2456 50.7296 52.3619 50.9218 52.6955C51.1141 53.0318 50.9977 53.459 50.6638 53.6511L50.6613 53.6536L50.6512 53.6587L49.9378 54.0632L49.9277 54.0682C49.5913 54.2578 49.1663 54.1415 48.9766 53.8053C48.7843 53.4716 48.9007 53.0495 49.2346 52.8573Z" fill="#95B0DD"/>
<path d="M51.6935 51.5074L52.4448 51.1282C52.7913 50.9538 53.2163 51.0928 53.3909 51.4392C53.5654 51.7855 53.4263 52.2102 53.0797 52.3847L53.0696 52.3897L52.336 52.7588L52.3259 52.7639C51.9793 52.9383 51.5543 52.7992 51.3798 52.4529C51.2078 52.1066 51.3444 51.6844 51.6935 51.5074Z" fill="#95B0DD"/>
<path d="M54.215 50.2864L54.984 49.9452C55.3407 49.7859 55.758 49.9477 55.9149 50.3016C56.0742 50.6581 55.9124 51.0752 55.5582 51.2319L55.5481 51.237L54.7993 51.5707L54.7892 51.5757C54.4325 51.7325 54.0151 51.5732 53.8583 51.2168C53.6989 50.8603 53.8608 50.4457 54.215 50.2864Z" fill="#95B0DD"/>
<path d="M56.7955 49.1918L57.5797 48.8885C57.944 48.7469 58.3538 48.9264 58.4954 49.2904C58.6371 49.6545 58.4575 50.064 58.0932 50.2055L58.0831 50.2081L57.3166 50.5038L57.3065 50.5064C56.9423 50.6479 56.5325 50.4659 56.3908 50.1019C56.2517 49.7404 56.4313 49.3309 56.7955 49.1918Z" fill="#95B0DD"/>
<path d="M59.4233 48.2185L60.2201 47.9505C60.592 47.8267 60.9942 48.0264 61.1181 48.398C61.2421 48.7696 61.0422 49.1715 60.6704 49.2954L60.6603 49.2979L59.8811 49.5583L59.871 49.5608C59.4992 49.6847 59.0995 49.485 58.973 49.1134C58.8541 48.7443 59.0514 48.3424 59.4233 48.2185Z" fill="#95B0DD"/>
<path d="M62.0951 47.3716L62.9046 47.1416C63.2815 47.0329 63.6762 47.2528 63.7824 47.6295C63.8886 48.0061 63.6711 48.4005 63.2942 48.5067L63.2841 48.5092L62.4948 48.7342L62.4847 48.7367C62.1078 48.8429 61.7157 48.6255 61.6069 48.2463C61.4981 47.8696 61.7182 47.4778 62.0951 47.3716Z" fill="#95B0DD"/>
<path d="M64.802 46.6486L65.6216 46.4564C66.0036 46.3654 66.3881 46.6031 66.4792 46.9848C66.5702 47.3665 66.3324 47.7508 65.9505 47.8418L65.9404 47.8443L65.1385 48.0314L65.1283 48.0339C64.7464 48.1249 64.3619 47.8873 64.2733 47.503C64.1823 47.1213 64.4201 46.737 64.802 46.6486Z" fill="#95B0DD"/>
<path d="M67.5383 46.0494L68.3655 45.8927C68.7525 45.8194 69.1269 46.0747 69.2002 46.4615C69.2736 46.8483 69.0181 47.2224 68.6311 47.2957L68.621 47.2982L67.814 47.4499L67.8039 47.4524C67.4169 47.5258 67.0425 47.2704 66.9716 46.8837C66.8983 46.4943 67.1512 46.1202 67.5383 46.0494Z" fill="#95B0DD"/>
<path d="M70.3009 45.5742L71.1332 45.4554C71.5253 45.3998 71.887 45.6728 71.9426 46.0621C71.9983 46.454 71.7251 46.8155 71.3355 46.8711L71.3254 46.8736L70.5134 46.9874L70.5033 46.9899C70.1112 47.0455 69.7495 46.7725 69.6963 46.3807C69.6382 45.9888 69.9088 45.6273 70.3009 45.5742Z" fill="#95B0DD"/>
<path d="M73.0787 45.2229L73.9159 45.142C74.3106 45.1041 74.6596 45.3923 74.6976 45.7867C74.7355 46.181 74.4472 46.5299 74.0525 46.5678H74.0424L73.2254 46.6462H73.2152C72.8206 46.6841 72.4715 46.3959 72.4336 46.0015C72.3982 45.6097 72.6866 45.2608 73.0787 45.2229Z" fill="#95B0DD"/>
<path d="M75.8712 44.9978L76.7111 44.9548C77.1082 44.9346 77.4447 45.2405 77.4649 45.6348C77.4852 46.0317 77.1791 46.3679 76.7844 46.3882H76.7743L75.9522 46.4286H75.9421C75.5449 46.4488 75.2085 46.143 75.1882 45.7461C75.1705 45.3568 75.4766 45.018 75.8712 44.9978Z" fill="#95B0DD"/>
<path d="M78.6745 44.9018L79.5143 44.8967C79.9115 44.8942 80.2352 45.2153 80.2378 45.6122C80.2403 46.009 79.919 46.3326 79.5219 46.3352H79.5118L78.6896 46.3377H78.6795C78.2824 46.3402 77.9586 46.0192 77.9561 45.6197C77.9561 45.2279 78.2773 44.9043 78.6745 44.9018Z" fill="#95B0DD"/>
<path d="M81.4749 44.9295L82.3147 44.9598C82.7144 44.975 83.0256 45.3087 83.0104 45.7081C82.9952 46.1075 82.6613 46.4185 82.2616 46.4033H82.2515L81.4294 46.3704H81.4192C81.0221 46.3553 80.7109 46.019 80.7261 45.6222C80.7413 45.2253 81.0777 44.9143 81.4749 44.9295Z" fill="#95B0DD"/>
<path d="M84.2697 45.0737L85.107 45.1394C85.5067 45.1697 85.8027 45.5186 85.7723 45.918C85.7419 46.3174 85.3929 46.6132 84.9932 46.5829H84.9856L84.166 46.5171H84.1584C83.7613 46.4868 83.4628 46.138 83.4956 45.7385C83.5235 45.3391 83.87 45.0433 84.2697 45.0737Z" fill="#95B0DD"/>
<path d="M87.0543 45.3314L87.8866 45.43C88.2837 45.4781 88.5696 45.837 88.5215 46.2339C88.4735 46.6308 88.1143 46.9165 87.7171 46.8684H87.7095L86.8924 46.7698H86.8849C86.4877 46.7218 86.2044 46.3628 86.2499 45.9634C86.298 45.5691 86.6572 45.2834 87.0543 45.3314Z" fill="#95B0DD"/>
<path d="M89.8301 45.6982L90.6598 45.8296C91.057 45.8928 91.3276 46.2645 91.2644 46.6614C91.2012 47.0582 90.8293 47.3287 90.4321 47.2655L90.4246 47.263L89.6125 47.1341L89.605 47.1316C89.2078 47.0684 88.9371 46.6967 89.0004 46.2998C89.0636 45.903 89.4329 45.635 89.8301 45.6982Z" fill="#95B0DD"/>
<path d="M92.5849 46.1683L93.407 46.3301C93.8016 46.4085 94.0596 46.7902 93.9812 47.1846C93.9028 47.5789 93.5208 47.8368 93.1262 47.7584L93.1186 47.7559L92.3117 47.5966L92.3041 47.5941C91.9095 47.5157 91.6514 47.134 91.7299 46.7397C91.8083 46.3478 92.1903 46.09 92.5849 46.1683Z" fill="#95B0DD"/>
<path d="M95.3217 46.7396L96.1388 46.9292C96.5309 47.0202 96.7763 47.4146 96.6827 47.8064C96.5916 48.1982 96.197 48.4434 95.8049 48.3499L95.7973 48.3474L94.9954 48.1603L94.9878 48.1578C94.5957 48.0668 94.3529 47.6724 94.4439 47.2806C94.5375 46.8913 94.9296 46.6486 95.3217 46.7396Z" fill="#95B0DD"/>
<path d="M98.0356 47.4097L98.8451 47.6296C99.2347 47.7358 99.4649 48.1377 99.3611 48.527C99.2549 48.9163 98.8527 49.1464 98.4631 49.0427L98.4555 49.0402L97.6613 48.8253L97.6537 48.8228C97.2641 48.7166 97.0339 48.3147 97.1402 47.9254C97.2439 47.5335 97.6461 47.3035 98.0356 47.4097Z" fill="#95B0DD"/>
<path d="M100.722 48.1704L101.524 48.4156C101.911 48.5345 102.129 48.944 102.01 49.3308C101.891 49.7175 101.481 49.935 101.094 49.8161L101.087 49.8136L100.3 49.5709L100.292 49.5684C99.9052 49.4496 99.6876 49.0375 99.8091 48.6533C99.9254 48.269 100.335 48.0516 100.722 48.1704Z" fill="#95B0DD"/>
<path d="M103.383 49.0225L104.175 49.2955C104.56 49.427 104.764 49.8466 104.63 50.2283C104.499 50.6126 104.079 50.8174 103.697 50.6834L103.689 50.6808L102.91 50.4129L102.903 50.4104C102.518 50.2789 102.316 49.8593 102.447 49.4775C102.581 49.0958 102.999 48.891 103.383 49.0225Z" fill="#95B0DD"/>
<path d="M106.011 49.9628L106.793 50.2611C107.172 50.4052 107.362 50.8299 107.215 51.2065C107.071 51.5857 106.646 51.7753 106.269 51.6287L106.264 51.6262L105.493 51.3355L105.485 51.3329C105.106 51.1888 104.916 50.7667 105.058 50.3875C105.207 50.0083 105.632 49.8187 106.011 49.9628Z" fill="#95B0DD"/>
<path d="M108.61 50.9866L109.381 51.3077C109.753 51.4619 109.928 51.8891 109.773 52.2607C109.619 52.6323 109.191 52.8067 108.82 52.6525L108.815 52.65L108.053 52.334L108.048 52.3315C107.676 52.1773 107.499 51.7501 107.653 51.3784C107.808 51.0068 108.235 50.8299 108.61 50.9866Z" fill="#95B0DD"/>
<path d="M111.173 52.0863L111.934 52.4301C112.298 52.5944 112.46 53.0242 112.296 53.3907C112.131 53.7548 111.701 53.9166 111.334 53.7522L111.329 53.7497L110.578 53.411L110.573 53.4084C110.206 53.2441 110.044 52.8144 110.209 52.4478C110.373 52.0838 110.803 51.9195 111.173 52.0863Z" fill="#95B0DD"/>
<path d="M113.701 53.2618L114.455 53.6283C114.815 53.8028 114.964 54.235 114.787 54.594C114.612 54.953 114.18 55.1021 113.82 54.9252L113.818 54.9226L113.074 54.5637L113.069 54.5612C112.71 54.3867 112.558 53.9544 112.733 53.5955C112.907 53.2365 113.34 53.0848 113.701 53.2618Z" fill="#95B0DD"/>
<path d="M116.199 54.5057L116.943 54.8924C117.294 55.077 117.431 55.5093 117.246 55.8607C117.062 56.212 116.629 56.3486 116.277 56.164L116.275 56.1615L115.541 55.7823L115.536 55.7798C115.185 55.5977 115.046 55.1629 115.23 54.8115C115.41 54.4602 115.845 54.3236 116.199 54.5057Z" fill="#95B0DD"/>
<path d="M118.657 55.8201L119.388 56.2271C119.732 56.4193 119.856 56.8541 119.664 57.1979C119.472 57.5417 119.037 57.6655 118.693 57.4734L118.69 57.4709L117.967 57.0715L117.962 57.0689C117.615 56.8768 117.491 56.442 117.683 56.0982C117.876 55.7544 118.311 55.628 118.657 55.8201Z" fill="#95B0DD"/>
<path d="M121.083 57.2004L121.804 57.6276C122.14 57.8273 122.254 58.2621 122.054 58.6009C121.854 58.9371 121.419 59.0509 121.08 58.8511L121.078 58.8486L120.364 58.429L120.359 58.4264C120.02 58.2267 119.907 57.7919 120.106 57.4532C120.306 57.1119 120.741 57.0007 121.083 57.2004Z" fill="#95B0DD"/>
<path d="M123.469 58.6412L124.177 59.0862C124.509 59.2934 124.607 59.7283 124.4 60.0594C124.192 60.3906 123.757 60.4892 123.426 60.2819L123.423 60.2793L122.723 59.842L122.718 59.8395C122.386 59.6322 122.285 59.1974 122.493 58.8637C122.7 58.5351 123.135 58.4339 123.469 58.6412Z" fill="#95B0DD"/>
<path d="M125.819 60.1429L126.517 60.6055C126.841 60.8204 126.929 61.2552 126.714 61.5787C126.499 61.9023 126.064 61.9908 125.74 61.7759L125.738 61.7734L125.047 61.3184L125.042 61.3158C124.718 61.101 124.627 60.6661 124.842 60.34C125.055 60.019 125.492 59.928 125.819 60.1429Z" fill="#95B0DD"/>
<path d="M128.128 61.7003L128.814 62.1781C129.13 62.398 129.208 62.8353 128.986 63.1513C128.766 63.4673 128.328 63.5457 128.012 63.3232L128.009 63.3207L127.331 62.8505L127.326 62.848C127.008 62.628 126.929 62.1907 127.149 61.8747C127.372 61.5587 127.809 61.4803 128.128 61.7003Z" fill="#95B0DD"/>
<path d="M130.4 63.3105L131.072 63.8009C131.384 64.0259 131.452 64.4607 131.224 64.7716C130.999 65.0826 130.564 65.1508 130.253 64.9233H130.25L129.582 64.4379L129.58 64.4354C129.269 64.2104 129.198 63.7756 129.426 63.4621C129.651 63.1512 130.086 63.083 130.4 63.3105Z" fill="#95B0DD"/>
<path d="M132.634 64.9613L133.299 65.4643C133.603 65.6944 133.663 66.1292 133.433 66.4325C133.203 66.7359 132.768 66.7966 132.464 66.5665L131.804 66.0685L131.802 66.066C131.495 65.8359 131.435 65.4011 131.665 65.0978C131.893 64.7919 132.328 64.7312 132.634 64.9613Z" fill="#95B0DD"/>
<path d="M134.842 66.6499L135.5 67.1606C135.798 67.3931 135.854 67.8254 135.619 68.1262C135.386 68.4245 134.954 68.4801 134.652 68.245L133.997 67.7395L133.995 67.7369C133.694 67.5044 133.638 67.0721 133.873 66.7712C134.106 66.4704 134.539 66.4148 134.842 66.6499Z" fill="#95B0DD"/>
<path d="M137.023 68.3639L137.673 68.8822C137.969 69.1173 138.017 69.547 137.782 69.8428C137.546 70.1386 137.116 70.1866 136.82 69.9515L136.17 69.4358H136.168C135.872 69.2007 135.821 68.7709 136.056 68.4752C136.294 68.1769 136.724 68.1288 137.023 68.3639Z" fill="#95B0DD"/>
<path d="M139.185 70.1005L139.83 70.6238C140.121 70.8615 140.166 71.2887 139.929 71.5794C139.691 71.8701 139.263 71.9156 138.972 71.6805L138.327 71.1598C138.034 70.9247 137.988 70.4949 138.224 70.2017C138.461 69.9084 138.889 69.8629 139.185 70.1005Z" fill="#95B0DD"/>
<path d="M141.335 71.8501L141.978 72.3759C142.266 72.6135 142.309 73.0382 142.071 73.3264C141.834 73.6146 141.409 73.6576 141.12 73.4225L140.478 72.8992C140.187 72.6641 140.144 72.2368 140.379 71.9461C140.614 71.6554 141.044 71.6124 141.335 71.8501Z" fill="#95B0DD"/>
<path d="M143.478 73.6069L144.121 74.1352C144.407 74.3703 144.45 74.795 144.214 75.0807C143.979 75.3663 143.557 75.4093 143.268 75.1742L142.626 74.6484C142.337 74.4133 142.294 73.9886 142.53 73.7004C142.765 73.4122 143.19 73.3692 143.478 73.6069Z" fill="#95B0DD"/>
<path d="M145.618 75.3638L146.261 75.8896C146.547 76.1222 146.59 76.5443 146.355 76.83C146.122 77.1157 145.699 77.1586 145.414 76.9261L144.768 76.4002C144.483 76.1677 144.44 75.7455 144.672 75.4573C144.908 75.1717 145.33 75.1287 145.618 75.3638Z" fill="#95B0DD"/>
<path d="M147.761 77.1132L148.406 77.6365C148.692 77.8665 148.735 78.2862 148.504 78.5718C148.274 78.8575 147.854 78.903 147.568 78.6704L146.921 78.1471C146.635 77.9171 146.589 77.4975 146.82 77.2118C147.052 76.9236 147.472 76.8806 147.761 77.1132Z" fill="#95B0DD"/>
<path d="M149.911 78.8475L150.559 79.3632H150.561C150.847 79.5907 150.893 80.0078 150.665 80.2909C150.437 80.5766 150.023 80.6246 149.737 80.3971L149.084 79.8789C148.798 79.6514 148.75 79.2342 148.978 78.9486C149.205 78.6629 149.623 78.6149 149.909 78.8424L149.911 78.8475Z" fill="#95B0DD"/>
<path d="M152.076 80.5638L152.729 81.072L152.731 81.0745C153.017 81.2969 153.068 81.7115 152.845 81.9972C152.622 82.2828 152.21 82.3359 151.924 82.1109L151.267 81.6003C150.978 81.3778 150.928 80.9632 151.15 80.6776C151.373 80.3894 151.788 80.3388 152.074 80.5613L152.076 80.5638Z" fill="#95B0DD"/>
<path d="M154.261 82.25L154.922 82.7505L154.924 82.7531C155.213 82.9705 155.268 83.38 155.051 83.6682C154.833 83.9564 154.423 84.0145 154.138 83.7946L153.47 83.2941C153.181 83.0766 153.123 82.6671 153.341 82.3789C153.558 82.0907 153.968 82.0326 154.256 82.25H154.259H154.261Z" fill="#95B0DD"/>
<path d="M156.47 83.9009L157.138 84.3888L157.14 84.3913C157.431 84.6036 157.494 85.0081 157.282 85.2989C157.069 85.5896 156.664 85.6528 156.376 85.4429L155.701 84.9525C155.41 84.7427 155.344 84.3357 155.556 84.045C155.766 83.7542 156.174 83.6885 156.465 83.9009H156.467H156.47Z" fill="#95B0DD"/>
<path d="M158.708 85.5087L159.386 85.9815L159.389 85.984C159.682 86.1888 159.753 86.5907 159.548 86.884C159.343 87.1772 158.944 87.248 158.65 87.0458L157.965 86.5705C157.671 86.3657 157.598 85.9638 157.803 85.6705C158.008 85.3773 158.41 85.304 158.703 85.5087H158.706H158.708Z" fill="#95B0DD"/>
<path d="M160.98 87.0632L161.668 87.5183L161.673 87.5208C161.969 87.7154 162.05 88.1149 161.853 88.4106C161.658 88.7064 161.261 88.7873 160.965 88.5927L160.267 88.1326C159.971 87.9379 159.887 87.5385 160.085 87.2427C160.279 86.9469 160.679 86.8635 160.975 87.0607H160.978L160.98 87.0632Z" fill="#95B0DD"/>
<path d="M163.285 88.565L163.983 89.0023L163.988 89.0048C164.284 89.1919 164.375 89.5812 164.188 89.877C164.003 90.1728 163.614 90.2612 163.318 90.0792L162.607 89.6394C162.308 89.4548 162.215 89.063 162.399 88.7647C162.584 88.4664 162.976 88.3728 163.275 88.5574L163.277 88.5599L163.285 88.565Z" fill="#95B0DD"/>
<path d="M165.63 90.0033L166.341 90.4204L166.346 90.423C166.644 90.5974 166.743 90.9791 166.569 91.2774C166.394 91.5732 166.015 91.6743 165.716 91.5024L164.993 91.0828C164.692 90.9083 164.59 90.5266 164.762 90.2258C164.937 89.9249 165.319 89.8238 165.62 89.9957L165.622 89.9983L165.63 90.0033Z" fill="#95B0DD"/>
<path d="M168.018 91.3658L168.741 91.7577L168.746 91.7602C169.045 91.922 169.156 92.2961 168.994 92.5944C168.832 92.8927 168.46 93.004 168.162 92.8447L167.423 92.4503C167.122 92.2885 167.008 91.9144 167.17 91.6136C167.332 91.3127 167.707 91.199 168.008 91.3608L168.01 91.3633L168.018 91.3658Z" fill="#95B0DD"/>
<path d="M170.448 92.6451L171.187 93.0117L171.192 93.0142C171.493 93.1634 171.615 93.5274 171.465 93.8282C171.316 94.1265 170.954 94.2504 170.656 94.1038L169.902 93.7372C169.598 93.5906 169.474 93.224 169.621 92.9232C169.768 92.6199 170.135 92.496 170.438 92.6426L170.441 92.6451H170.448Z" fill="#95B0DD"/>
<path d="M172.923 93.8308L173.675 94.167L173.682 94.1695C173.983 94.3035 174.12 94.6574 173.983 94.9608C173.849 95.2616 173.497 95.3956 173.196 95.2641L172.43 94.9254C172.126 94.7914 171.987 94.4375 172.121 94.1341C172.255 93.8308 172.61 93.6917 172.913 93.8257L172.916 93.8282L172.923 93.8308Z" fill="#95B0DD"/>
<path d="M175.442 94.9152L176.206 95.2185L176.214 95.221C176.518 95.3424 176.664 95.6837 176.545 95.987C176.426 96.2878 176.085 96.437 175.784 96.3182L175.002 96.0148C174.696 95.896 174.547 95.5522 174.666 95.2489C174.785 94.943 175.129 94.7938 175.432 94.9126L175.435 94.9152H175.442Z" fill="#95B0DD"/>
<path d="M178.007 95.8834L178.784 96.1514L178.791 96.1539C179.095 96.2576 179.257 96.5887 179.153 96.8921C179.049 97.1929 178.72 97.3547 178.417 97.2536L177.622 96.9856C177.316 96.882 177.152 96.5508 177.256 96.2475C177.359 95.9416 177.691 95.7773 177.994 95.8809H177.997L178.007 95.8834Z" fill="#95B0DD"/>
<path d="M180.613 96.7304L181.402 96.9579L181.41 96.9604C181.713 97.0489 181.888 97.3649 181.802 97.6682C181.713 97.9716 181.399 98.146 181.096 98.0601L180.289 97.8326C179.983 97.7466 179.806 97.4281 179.892 97.1222C179.978 96.8163 180.297 96.6394 180.603 96.7253H180.605L180.613 96.7304Z" fill="#95B0DD"/>
<path d="M183.257 97.4406L184.056 97.6251L184.066 97.6277C184.37 97.6984 184.559 98.0018 184.489 98.3026C184.418 98.6034 184.117 98.793 183.816 98.7248L182.996 98.5402C182.69 98.472 182.5 98.1686 182.569 97.8628C182.637 97.5569 182.94 97.3673 183.247 97.4355H183.249L183.257 97.4406Z" fill="#95B0DD"/>
<path d="M185.933 98.002L186.742 98.1385L186.752 98.141C187.053 98.1916 187.258 98.4772 187.208 98.7806C187.157 99.0814 186.871 99.2837 186.57 99.2356L185.74 99.1016C185.437 99.0511 185.229 98.7654 185.28 98.4621C185.331 98.1587 185.616 97.9514 185.92 98.002H185.923H185.933Z" fill="#95B0DD"/>
<path d="M188.639 98.4012L189.456 98.4897H189.467C189.768 98.5226 189.983 98.7905 189.952 99.0914C189.919 99.3897 189.654 99.6071 189.355 99.5767L188.518 99.4933C188.217 99.463 187.997 99.1925 188.027 98.8917C188.058 98.5908 188.328 98.3709 188.629 98.4012H188.632H188.639Z" fill="#95B0DD"/>
<path d="M191.367 98.6365L192.186 98.6744H192.196C192.492 98.687 192.723 98.9398 192.71 99.2356C192.697 99.5314 192.447 99.7589 192.151 99.7488L191.311 99.7159C191.013 99.7033 190.78 99.453 190.792 99.1547C190.805 98.8564 191.056 98.6238 191.354 98.6365H191.357H191.367Z" fill="#95B0DD"/>
<path d="M194.101 98.6996L194.92 98.6844H194.93C195.221 98.6794 195.464 98.9119 195.469 99.2027C195.474 99.4934 195.244 99.7335 194.953 99.7411L194.113 99.7614C193.82 99.7689 193.577 99.5364 193.57 99.2431C193.562 98.9498 193.795 98.7072 194.088 98.6996H194.091H194.101Z" fill="#95B0DD"/>
<path d="M196.832 98.5884L197.65 98.5201H197.66C197.946 98.4948 198.198 98.7072 198.221 98.9954C198.247 99.281 198.034 99.5313 197.751 99.5566L196.913 99.6324C196.625 99.6577 196.372 99.4479 196.347 99.1597C196.321 98.8715 196.531 98.6187 196.82 98.5934H196.822L196.832 98.5884Z" fill="#95B0DD"/>
<path d="M199.55 98.2927L200.359 98.1663L200.37 98.1637C200.648 98.1208 200.911 98.3129 200.954 98.591C200.997 98.869 200.807 99.1294 200.529 99.1724L199.697 99.3064C199.416 99.3519 199.153 99.1623 199.107 98.8817C199.062 98.6011 199.254 98.3382 199.532 98.2927H199.535H199.55Z" fill="#95B0DD"/>
<path d="M202.239 97.8072L203.038 97.6227L203.048 97.6202C203.319 97.557 203.59 97.7263 203.65 97.9968C203.714 98.2673 203.544 98.5353 203.276 98.5985L202.456 98.7931C202.186 98.8563 201.913 98.6895 201.849 98.419C201.786 98.1485 201.953 97.8755 202.224 97.8123H202.226L202.239 97.8072Z" fill="#95B0DD"/>
<path d="M204.882 97.1247L205.663 96.8795L205.673 96.877C205.934 96.7961 206.21 96.9402 206.293 97.2006C206.374 97.4584 206.23 97.7365 205.972 97.8174L205.17 98.0752C204.909 98.1587 204.629 98.0146 204.545 97.7542C204.462 97.4938 204.606 97.2132 204.866 97.1298H204.869L204.882 97.1247Z" fill="#95B0DD"/>
<path d="M207.462 96.2373L208.221 95.9289L208.231 95.9239C208.479 95.8228 208.762 95.9441 208.864 96.1918C208.965 96.4396 208.846 96.7202 208.601 96.8213L207.821 97.1423C207.574 97.246 207.288 97.1272 207.184 96.8769C207.08 96.6292 207.199 96.3435 207.45 96.2399L207.452 96.2373H207.462Z" fill="#95B0DD"/>
<path d="M209.959 95.1402L210.69 94.7711L210.7 94.7661C210.933 94.6498 211.214 94.7408 211.332 94.9734C211.449 95.2034 211.358 95.484 211.13 95.6028L210.381 95.9921C210.149 96.1135 209.863 96.0225 209.741 95.7899C209.62 95.5573 209.711 95.2717 209.944 95.1503L209.949 95.1478L209.959 95.1402Z" fill="#95B0DD"/>
<path d="M212.352 93.8333L213.045 93.3984L213.055 93.3909C213.267 93.2569 213.551 93.3226 213.682 93.535C213.814 93.7473 213.753 94.0254 213.541 94.1594L212.83 94.6144C212.615 94.7509 212.331 94.6902 212.195 94.4754C212.058 94.2605 212.119 93.9774 212.334 93.8408L212.339 93.8383L212.352 93.8333Z" fill="#95B0DD"/>
<path d="M214.613 92.3114L215.261 91.8134L215.274 91.8033C215.466 91.6542 215.744 91.6921 215.893 91.8842C216.04 92.0763 216.007 92.3519 215.815 92.501L215.15 93.0218C214.955 93.1735 214.677 93.1406 214.525 92.946C214.373 92.7513 214.406 92.4732 214.601 92.3215L214.603 92.319L214.613 92.3114Z" fill="#95B0DD"/>
<path d="M216.708 90.5746L217.3 90.0108L217.311 90.0007C217.48 89.8389 217.751 89.844 217.915 90.0159C218.077 90.1853 218.072 90.4532 217.905 90.615L217.3 91.204C217.131 91.3709 216.858 91.3658 216.691 91.1965C216.524 91.0271 216.529 90.7541 216.698 90.5872L216.701 90.5847L216.708 90.5746Z" fill="#95B0DD"/>
<path d="M218.608 88.623L219.139 88.0012L219.147 87.991C219.294 87.8166 219.554 87.7964 219.729 87.9455C219.901 88.0922 219.924 88.35 219.777 88.5244L219.236 89.1716C219.089 89.3486 218.826 89.3713 218.649 89.2247C218.472 89.0781 218.449 88.8152 218.596 88.6382L218.598 88.6357L218.608 88.623Z" fill="#95B0DD"/>
<path d="M220.305 86.4894L220.77 85.817L220.778 85.8069C220.904 85.6274 221.152 85.5819 221.332 85.7058C221.511 85.8296 221.557 86.0748 221.436 86.2569L220.963 86.9546C220.839 87.1391 220.588 87.1871 220.403 87.0608C220.219 86.9369 220.171 86.6866 220.297 86.5021L220.3 86.4995L220.305 86.4894Z" fill="#95B0DD"/>
<path d="M221.783 84.1942L222.18 83.4788L222.185 83.4687C222.289 83.2841 222.521 83.2159 222.706 83.3195C222.891 83.4206 222.957 83.6532 222.858 83.8378L222.456 84.5785C222.355 84.7655 222.117 84.8363 221.93 84.7352C221.742 84.6341 221.672 84.3964 221.773 84.2094L221.775 84.2068L221.783 84.1942Z" fill="#95B0DD"/>
<path d="M223.024 81.7647L223.351 81.0139L223.356 81.0038C223.437 80.8167 223.654 80.7308 223.841 80.8117C224.026 80.8926 224.115 81.1075 224.036 81.292L223.71 82.0681C223.629 82.2577 223.411 82.3487 223.222 82.2678C223.032 82.1869 222.941 81.9695 223.022 81.7799L223.024 81.7774V81.7647Z" fill="#95B0DD"/>
<path d="M224.018 79.2241L224.266 78.4429L224.269 78.4328C224.327 78.2457 224.527 78.1421 224.714 78.2002C224.899 78.2584 225.002 78.4556 224.947 78.6426L224.701 79.4465C224.643 79.6361 224.443 79.7423 224.254 79.6842C224.064 79.626 223.958 79.4263 224.016 79.2367V79.2342L224.018 79.2241Z" fill="#95B0DD"/>
<path d="M224.744 76.5924L224.906 75.7885L224.909 75.7784C224.947 75.5938 225.126 75.475 225.309 75.5129C225.491 75.5508 225.61 75.7278 225.577 75.9098L225.42 76.7364C225.384 76.9235 225.205 77.0449 225.018 77.0095C224.83 76.9741 224.709 76.7921 224.744 76.6075V76.605V76.5924Z" fill="#95B0DD"/>
<path d="M225.182 73.8976L225.253 73.0811V73.0684C225.268 72.889 225.428 72.7575 225.605 72.7727C225.782 72.7878 225.916 72.9446 225.901 73.1215L225.838 73.9608C225.825 74.1428 225.666 74.2793 225.483 74.2642C225.301 74.249 225.165 74.0923 225.18 73.9103V73.9077L225.182 73.8976Z" fill="#95B0DD"/>
<path d="M225.303 71.1724L225.276 70.3534V70.3407C225.27 70.1688 225.405 70.0247 225.577 70.0197C225.749 70.0146 225.89 70.1461 225.898 70.318L225.936 71.1598C225.943 71.3342 225.809 71.4808 225.635 71.4884C225.46 71.496 225.313 71.362 225.306 71.1876V71.1851L225.303 71.1724Z" fill="#95B0DD"/>
<path d="M225.094 68.4524L224.962 67.6435L224.96 67.6308C224.934 67.469 225.043 67.3173 225.205 67.2895C225.367 67.2643 225.519 67.373 225.544 67.5322L225.688 68.3614C225.716 68.5257 225.607 68.6799 225.443 68.7103C225.278 68.7381 225.124 68.6294 225.094 68.465V68.4625V68.4524Z" fill="#95B0DD"/>
<path d="M224.532 65.7853L224.294 65.0016L224.292 64.9915C224.246 64.8424 224.33 64.6856 224.479 64.6401C224.628 64.5946 224.785 64.678 224.831 64.8247L225.083 65.6285C225.132 65.7802 225.048 65.9395 224.896 65.9875C224.745 66.0356 224.585 65.9521 224.537 65.8005V65.7979L224.532 65.7853Z" fill="#95B0DD"/>
<path d="M223.835 56.7454L222.094 60.0975L220.571 57.4785L223.835 56.7454Z" fill="#8093CA"/>
<path d="M209.752 47L214.687 59.6373C214.781 59.88 214.971 60.0722 215.211 60.1733C215.451 60.2719 215.722 60.2719 215.96 60.1682L228.469 54.7407C228.613 54.6775 228.704 54.5359 228.699 54.3792C228.694 54.2224 228.598 54.0859 228.451 54.0303L209.752 47Z" fill="#95B0DD"/>
<path d="M223.832 56.7453L209.752 47L221.816 57.6276L221.373 58.5781L223.832 56.7453Z" fill="#8093CA"/>
<path d="M220.617 58.1409L222.094 60.0975L221.816 57.6277L220.617 58.1409Z" fill="#8093CA"/>
<path d="M251.981 166.785C251.981 166.785 252.649 167.84 252.818 170.787C252.833 171.063 252.616 171.295 252.34 171.295H247.109C246.899 171.295 246.747 171.088 246.815 170.891C247.121 169.983 248.047 167.774 250.117 166.512L251.981 166.785Z" fill="url(#paint19_linear_120_2434)"/>
<path d="M252.209 164.786L251.913 167.266C251.887 167.481 251.72 167.65 251.505 167.675C251.22 167.708 250.805 167.731 250.4 167.665C250.033 167.605 249.768 167.279 249.768 166.907V164.513L252.209 164.786Z" fill="url(#paint20_linear_120_2434)"/>
<path d="M239.042 166.513C239.042 166.513 240.044 168.067 240.021 170.201C240.016 170.704 239.596 171.103 239.093 171.103H230.97C230.591 171.103 230.436 170.615 230.747 170.396C232.285 169.316 235.306 167.301 237.491 166.51H239.042V166.513Z" fill="url(#paint21_linear_120_2434)"/>
<path d="M239.876 163.835L239.247 166.897C239.176 167.238 238.842 167.471 238.5 167.392C238.293 167.347 238.048 167.258 237.787 167.094C237.539 166.94 237.413 166.644 237.463 166.353L238.116 162.645L239.876 163.835Z" fill="url(#paint22_linear_120_2434)"/>
<path d="M251.05 121.269C251.05 121.269 253.243 123.203 253.658 125.529C254.07 127.855 252.489 165.653 252.489 165.653C252.489 165.653 250.296 166.017 249.165 165.332C249.165 165.332 247.825 140.8 246.805 135.133C246.805 135.133 241.458 160.544 239.978 165.135C239.978 165.135 237.863 165.393 237.183 164.991C237.183 164.991 238.584 132.051 240.342 126.196L251.05 121.269Z" fill="url(#paint23_linear_120_2434)"/>
<path d="M246.866 134.306C246.848 134.306 246.831 134.304 246.813 134.299C246.702 134.271 246.636 134.157 246.664 134.046L247.595 130.474C247.607 130.423 247.64 130.38 247.683 130.352L249.697 129.063C249.793 129 249.922 129.03 249.982 129.126C250.043 129.222 250.015 129.351 249.919 129.412L247.974 130.658L247.063 134.152C247.041 134.243 246.957 134.306 246.866 134.306Z" fill="url(#paint24_linear_120_2434)"/>
<path d="M229.399 99.4302C238.635 98.6642 241.048 100.573 241.048 100.573L236.609 107.575C236.609 107.575 227.535 107.396 221.031 102.388C222.248 101.078 223.093 99.6299 223.634 98.5024C225.314 99.2002 227.247 99.6072 229.399 99.4302Z" fill="url(#paint25_linear_120_2434)"/>
<path d="M214.937 85.8803C214.95 85.5845 215.349 85.5036 215.476 85.7716L216.655 88.2844C216.882 88.7698 216.956 89.3133 216.865 89.8416L216.452 91.3053C216.328 92.0182 216.516 92.7488 216.968 93.3151C218.051 94.6675 220.358 97.1399 223.642 98.5025C223.1 99.6299 222.255 101.076 221.039 102.388C218.653 100.55 216.612 98.0626 215.494 94.6953C214.957 94.531 214.601 94.0279 214.621 93.4667L214.937 85.8803Z" fill="url(#paint26_linear_120_2434)"/>
<path d="M226.358 103.49C229.609 99.9889 235.801 98.4064 239.388 97.7567C240.959 97.471 242.507 98.3457 243.064 99.8397C244.678 104.175 249.066 115.452 249.916 117.389C250.615 118.979 251.343 120.531 251.806 121.502C252.082 122.081 251.841 122.776 251.262 123.054C248.244 124.508 242.818 126.151 240.618 126.793C240.134 126.935 239.651 126.571 239.651 126.067C239.651 125.64 239.535 125.221 239.315 124.854L230.98 110.978C225.784 116.734 221.236 117.26 217.742 116.001C218.329 114.186 218.714 112.368 218.898 110.546C224.061 109.661 226.358 103.49 226.358 103.49Z" fill="#EE745A"/>
<path d="M210.366 109.58L211.297 108.339C214.312 110.409 216.834 110.9 218.899 110.546C218.714 112.368 218.329 114.186 217.743 116.001C213.139 114.34 210.366 109.58 210.366 109.58Z" fill="url(#paint27_linear_120_2434)"/>
<path d="M211.021 109.603L205.772 109.808L200.938 107.11C201.631 106.675 205.554 107.563 205.554 107.563C205.554 107.563 209.655 106.943 210.765 106.941C211.686 106.941 211.554 108.266 211.483 108.713C211.468 108.804 211.458 108.86 211.458 108.86L211.021 109.603Z" fill="url(#paint28_linear_120_2434)"/>
<path d="M234.458 91.3254L237.228 98.0802C237.228 98.0802 234.046 100.282 231.486 100.072L230.104 94L234.458 91.3254Z" fill="url(#paint29_linear_120_2434)"/>
<path d="M229.779 86.7223C229.716 86.8133 227.775 93.8158 227.775 93.8158L231.8 94.8371L234.626 88.4717C234.628 88.4717 230.841 85.2182 229.779 86.7223Z" fill="url(#paint30_linear_120_2434)"/>
<path d="M233.11 89.4398L231.886 92.9082C231.871 92.9537 231.848 92.9941 231.823 93.032C231.656 93.2671 231.026 94.0382 230.277 93.3455C229.596 92.716 228.967 92.1523 228.385 92.0486C228.124 92.0031 227.871 92.1624 227.8 92.4177C227.623 93.0548 227.254 94.4957 227.122 95.7976C227.097 96.0605 227.279 96.3007 227.54 96.3487C228.327 96.4979 229.994 96.7659 231.385 96.6673C231.575 96.6546 231.739 96.5409 231.817 96.369C232.202 95.5322 233.376 92.9891 233.813 92.3318C234.223 91.715 235.23 91.7327 235.65 91.768C235.789 91.7807 235.923 91.7352 236.029 91.6442C236.399 91.3206 237.099 90.4965 236.113 89.508C235.905 89.3007 235.91 88.9671 236.125 88.7673C236.55 88.3679 237.003 87.6626 236.297 86.7854C235.579 85.893 234.63 86.0371 234.049 86.247C233.813 86.3329 233.558 86.2343 233.429 86.0194C233.355 85.8981 233.229 85.8045 233.009 85.8222C232.713 85.8475 232.463 85.5998 232.468 85.304C232.478 84.7327 232.273 84.0122 231.281 83.7038C229.523 83.1578 228.425 84.854 228.316 86.1206C228.208 87.3871 230.148 87.8724 231.289 87.7865C232.156 87.7208 232.801 88.5803 233.06 88.9974C233.146 89.1314 233.163 89.2932 233.11 89.4398Z" fill="url(#paint31_linear_120_2434)"/>
<path d="M233.355 93.5906C233.355 93.5906 233.639 91.3913 234.555 91.2826C235.47 91.1739 236.361 91.9272 235.45 93.1609C234.319 94.6979 233.355 93.5906 233.355 93.5906Z" fill="url(#paint32_linear_120_2434)"/>
<path d="M201.302 108.599C214.055 108.599 224.393 98.268 224.393 85.5238C224.393 72.7797 214.055 62.4485 201.302 62.4485C188.55 62.4485 178.212 72.7797 178.212 85.5238C178.212 98.268 188.55 108.599 201.302 108.599Z" fill="url(#paint33_linear_120_2434)"/>
<path d="M217.085 101.299C225.803 92.5871 225.803 78.4617 217.085 69.7495C208.367 61.0372 194.233 61.0372 185.515 69.7495C176.797 78.4617 176.797 92.5871 185.515 101.299C194.233 110.012 208.367 110.012 217.085 101.299Z" fill="#1E8135"/>
<path d="M180.723 84.6669C180.718 84.6669 180.715 84.6669 180.71 84.6669C180.581 84.6593 180.48 84.5481 180.488 84.4192C180.533 83.542 180.634 82.6622 180.791 81.8027C180.814 81.6738 180.935 81.5904 181.064 81.6131C181.193 81.6359 181.277 81.7597 181.254 81.8861C181.102 82.7254 181.004 83.5875 180.958 84.4419C180.953 84.5683 180.849 84.6669 180.723 84.6669Z" fill="url(#paint34_linear_120_2434)"/>
<path d="M182.893 76.4914C182.858 76.4914 182.823 76.4838 182.787 76.4661C182.671 76.408 182.625 76.2664 182.683 76.1501C186.253 69.0844 193.386 64.6934 201.301 64.6934C202.564 64.6934 203.829 64.8071 205.06 65.0321C205.19 65.0549 205.273 65.1787 205.25 65.3051C205.227 65.4341 205.103 65.52 204.977 65.4947C203.773 65.2748 202.536 65.1636 201.301 65.1636C193.566 65.1636 186.594 69.4535 183.106 76.3599C183.063 76.4459 182.979 76.4914 182.893 76.4914Z" fill="url(#paint35_linear_120_2434)"/>
<path opacity="0.87" d="M201.787 104.891C212.222 104.891 220.681 96.437 220.681 86.0091C220.681 75.5812 212.222 67.1277 201.787 67.1277C191.353 67.1277 182.894 75.5812 182.894 86.0091C182.894 96.437 191.353 104.891 201.787 104.891Z" fill="url(#paint36_linear_120_2434)"/>
<path d="M195.322 96.2222C195.221 96.2222 195.119 96.2171 195.016 96.2045C194.229 96.116 193.516 95.6963 193.058 95.0492L188.312 88.3298C187.429 87.081 187.728 85.3544 188.978 84.4721C190.227 83.5899 191.955 83.8882 192.838 85.137L195.78 89.3031L210.178 76.279C211.312 75.2526 213.065 75.3411 214.089 76.4736C215.116 77.6062 215.028 79.358 213.894 80.3819L197.176 95.5017C196.67 95.9694 196.005 96.2222 195.322 96.2222Z" fill="url(#paint37_linear_120_2434)"/>
</g>
<defs>
<linearGradient id="paint0_linear_120_2434" x1="458.191" y1="87.7922" x2="73.1068" y2="82.9753" gradientUnits="userSpaceOnUse">
<stop stop-color="#BDE3F0"/>
<stop offset="1" stop-color="#D3ECF6"/>
</linearGradient>
<linearGradient id="paint1_linear_120_2434" x1="89.2192" y1="115.849" x2="90.1537" y2="150.445" gradientUnits="userSpaceOnUse">
<stop stop-color="#232451"/>
<stop offset="1" stop-color="#2A307B"/>
</linearGradient>
<linearGradient id="paint2_linear_120_2434" x1="178.879" y1="113.427" x2="179.814" y2="148.023" gradientUnits="userSpaceOnUse">
<stop stop-color="#232451"/>
<stop offset="1" stop-color="#2A307B"/>
</linearGradient>
<linearGradient id="paint3_linear_120_2434" x1="97.5028" y1="125.6" x2="107.596" y2="125.6" gradientUnits="userSpaceOnUse">
<stop stop-color="#F2908F"/>
<stop offset="1" stop-color="#F6B2B2"/>
</linearGradient>
<linearGradient id="paint4_linear_120_2434" x1="162.587" y1="125.6" x2="172.68" y2="125.6" gradientUnits="userSpaceOnUse">
<stop stop-color="#F2908F"/>
<stop offset="1" stop-color="#F6B2B2"/>
</linearGradient>
<linearGradient id="paint5_linear_120_2434" x1="41.7909" y1="76.9312" x2="36.027" y2="91.3992" gradientUnits="userSpaceOnUse">
<stop stop-color="#232451"/>
<stop offset="1" stop-color="#2A307B"/>
</linearGradient>
<linearGradient id="paint6_linear_120_2434" x1="21.5709" y1="62.2495" x2="32.3882" y2="72.4301" gradientUnits="userSpaceOnUse">
<stop stop-color="#F2908F"/>
<stop offset="1" stop-color="#F6B2B2"/>
</linearGradient>
<linearGradient id="paint7_linear_120_2434" x1="16.5934" y1="164.622" x2="23.5092" y2="185.009" gradientUnits="userSpaceOnUse">
<stop stop-color="#232451"/>
<stop offset="1" stop-color="#2A307B"/>
</linearGradient>
<linearGradient id="paint8_linear_120_2434" x1="41.3726" y1="188.824" x2="34.3402" y2="106.579" gradientUnits="userSpaceOnUse">
<stop stop-color="#F2908F"/>
<stop offset="1" stop-color="#F6B2B2"/>
</linearGradient>
<linearGradient id="paint9_linear_120_2434" x1="35.3433" y1="158.262" x2="42.259" y2="178.648" gradientUnits="userSpaceOnUse">
<stop stop-color="#232451"/>
<stop offset="1" stop-color="#2A307B"/>
</linearGradient>
<linearGradient id="paint10_linear_120_2434" x1="27.2087" y1="190.047" x2="20.1745" y2="107.781" gradientUnits="userSpaceOnUse">
<stop stop-color="#F2908F"/>
<stop offset="1" stop-color="#F6B2B2"/>
</linearGradient>
<linearGradient id="paint11_linear_120_2434" x1="76.8295" y1="95.5191" x2="47.4039" y2="122.469" gradientUnits="userSpaceOnUse">
<stop stop-color="#232451"/>
<stop offset="1" stop-color="#2A307B"/>
</linearGradient>
<linearGradient id="paint12_linear_120_2434" x1="43.9944" y1="87.3071" x2="34.4615" y2="111.061" gradientUnits="userSpaceOnUse">
<stop stop-color="#F2908F"/>
<stop offset="1" stop-color="#F6B2B2"/>
</linearGradient>
<linearGradient id="paint13_linear_120_2434" x1="59.9563" y1="98.0998" x2="47.6099" y2="105.213" gradientUnits="userSpaceOnUse">
<stop stop-color="#F2908F"/>
<stop offset="1" stop-color="#F6B2B2"/>
</linearGradient>
<linearGradient id="paint14_linear_120_2434" x1="48.8131" y1="66.4955" x2="44.4067" y2="82.0181" gradientUnits="userSpaceOnUse">
<stop stop-color="#F2908F"/>
<stop offset="1" stop-color="#F6B2B2"/>
</linearGradient>
<linearGradient id="paint15_linear_120_2434" x1="45.5412" y1="78.0944" x2="37.076" y2="91.1687" gradientUnits="userSpaceOnUse">
<stop stop-color="#232451"/>
<stop offset="1" stop-color="#2A307B"/>
</linearGradient>
<linearGradient id="paint16_linear_120_2434" x1="45.696" y1="65.6106" x2="41.2896" y2="81.1331" gradientUnits="userSpaceOnUse">
<stop stop-color="#F2908F"/>
<stop offset="1" stop-color="#F6B2B2"/>
</linearGradient>
<linearGradient id="paint17_linear_120_2434" x1="32.3418" y1="50.8048" x2="43.1592" y2="60.9855" gradientUnits="userSpaceOnUse">
<stop stop-color="#F2908F"/>
<stop offset="1" stop-color="#F6B2B2"/>
</linearGradient>
<linearGradient id="paint18_linear_120_2434" x1="64.4513" y1="66.2833" x2="59.4054" y2="115.28" gradientUnits="userSpaceOnUse">
<stop stop-color="#F2908F"/>
<stop offset="1" stop-color="#F6B2B2"/>
</linearGradient>
<linearGradient id="paint19_linear_120_2434" x1="252.819" y1="168.904" x2="246.801" y2="168.904" gradientUnits="userSpaceOnUse">
<stop stop-color="#232451"/>
<stop offset="1" stop-color="#2A307B"/>
</linearGradient>
<linearGradient id="paint20_linear_120_2434" x1="252.209" y1="166.109" x2="249.768" y2="166.109" gradientUnits="userSpaceOnUse">
<stop stop-color="#F2908F"/>
<stop offset="1" stop-color="#F6B2B2"/>
</linearGradient>
<linearGradient id="paint21_linear_120_2434" x1="240.021" y1="168.808" x2="230.578" y2="168.808" gradientUnits="userSpaceOnUse">
<stop stop-color="#232451"/>
<stop offset="1" stop-color="#2A307B"/>
</linearGradient>
<linearGradient id="paint22_linear_120_2434" x1="239.877" y1="165.026" x2="237.45" y2="165.026" gradientUnits="userSpaceOnUse">
<stop stop-color="#F2908F"/>
<stop offset="1" stop-color="#F6B2B2"/>
</linearGradient>
<linearGradient id="paint23_linear_120_2434" x1="279.502" y1="86.4016" x2="264.545" y2="113.34" gradientUnits="userSpaceOnUse">
<stop stop-color="#232451"/>
<stop offset="1" stop-color="#2A307B"/>
</linearGradient>
<linearGradient id="paint24_linear_120_2434" x1="280.332" y1="115.029" x2="257.321" y2="127.01" gradientUnits="userSpaceOnUse">
<stop stop-color="#232451"/>
<stop offset="1" stop-color="#2A307B"/>
</linearGradient>
<linearGradient id="paint25_linear_120_2434" x1="243.624" y1="70.045" x2="238.39" y2="83.1378" gradientUnits="userSpaceOnUse">
<stop stop-color="#E2473D"/>
<stop offset="1" stop-color="#E9615A"/>
</linearGradient>
<linearGradient id="paint26_linear_120_2434" x1="223.637" y1="93.9988" x2="214.616" y2="93.9988" gradientUnits="userSpaceOnUse">
<stop stop-color="#F2908F"/>
<stop offset="1" stop-color="#F6B2B2"/>
</linearGradient>
<linearGradient id="paint27_linear_120_2434" x1="203.211" y1="95.9643" x2="222.687" y2="120.211" gradientUnits="userSpaceOnUse">
<stop stop-color="#F2908F"/>
<stop offset="1" stop-color="#F6B2B2"/>
</linearGradient>
<linearGradient id="paint28_linear_120_2434" x1="199.515" y1="98.9328" x2="218.991" y2="123.179" gradientUnits="userSpaceOnUse">
<stop stop-color="#F2908F"/>
<stop offset="1" stop-color="#F6B2B2"/>
</linearGradient>
<linearGradient id="paint29_linear_120_2434" x1="225.139" y1="81.3184" x2="243.998" y2="115.992" gradientUnits="userSpaceOnUse">
<stop stop-color="#F2908F"/>
<stop offset="1" stop-color="#F6B2B2"/>
</linearGradient>
<linearGradient id="paint30_linear_120_2434" x1="231.089" y1="87.7051" x2="231.54" y2="101.525" gradientUnits="userSpaceOnUse">
<stop stop-color="#F2908F"/>
<stop offset="1" stop-color="#F6B2B2"/>
</linearGradient>
<linearGradient id="paint31_linear_120_2434" x1="229.3" y1="86.8742" x2="239.432" y2="105.701" gradientUnits="userSpaceOnUse">
<stop stop-color="#232451"/>
<stop offset="1" stop-color="#2A307B"/>
</linearGradient>
<linearGradient id="paint32_linear_120_2434" x1="236.032" y1="101.883" x2="234.526" y2="92.4211" gradientUnits="userSpaceOnUse">
<stop stop-color="#F2908F"/>
<stop offset="1" stop-color="#F6B2B2"/>
</linearGradient>
<linearGradient id="paint33_linear_120_2434" x1="178.212" y1="85.5238" x2="224.393" y2="85.5238" gradientUnits="userSpaceOnUse">
<stop stop-color="#E2473D"/>
<stop offset="1" stop-color="#E9615A"/>
</linearGradient>
<linearGradient id="paint34_linear_120_2434" x1="168.639" y1="29.4811" x2="172.004" y2="44.2557" gradientUnits="userSpaceOnUse">
<stop stop-color="#F2908F"/>
<stop offset="1" stop-color="#F6B2B2"/>
</linearGradient>
<linearGradient id="paint35_linear_120_2434" x1="183.76" y1="26.0385" x2="187.124" y2="40.8129" gradientUnits="userSpaceOnUse">
<stop stop-color="#F2908F"/>
<stop offset="1" stop-color="#F6B2B2"/>
</linearGradient>
<linearGradient id="paint36_linear_120_2434" x1="182.894" y1="86.0097" x2="220.681" y2="86.0097" gradientUnits="userSpaceOnUse">
<stop stop-color="#DAE1F3"/>
<stop offset="1" stop-color="#E9EFFA"/>
</linearGradient>
<linearGradient id="paint37_linear_120_2434" x1="187.809" y1="85.8941" x2="214.81" y2="85.8941" gradientUnits="userSpaceOnUse">
<stop stop-color="#EE7065"/>
<stop offset="1" stop-color="#F2908F"/>
</linearGradient>
<clipPath id="clip0_120_2434">
<rect width="269" height="176" fill="white"/>
</clipPath>
</defs>
</svg>
