<svg width="168" height="77" viewBox="0 0 168 77" fill="none" xmlns="http://www.w3.org/2000/svg">
<path d="M161.048 4.84168H149.681V2.42084C149.681 1.08392 148.602 0 147.271 0H138.215C136.884 0 135.805 1.08392 135.805 2.42084V4.84168H119.247V2.42084C119.247 1.08392 118.168 0 116.837 0H51.1627C49.8318 0 48.7527 1.08392 48.7527 2.42084L48.7722 4.84168H32.1951V2.42084C32.1951 1.08392 31.116 0 29.7851 0H20.7288C19.3979 0 18.3189 1.08392 18.3189 2.42084V4.84168H6.95206C3.11263 4.84168 0 7.96832 0 11.825V70.0166C0 73.8734 3.11263 77 6.95206 77H161.048C164.887 77 168 73.8734 168 70.0166V11.825C168 7.96832 164.887 4.84168 161.048 4.84168ZM162.679 70.0166C162.679 70.9194 161.948 71.6542 161.049 71.6542H6.95206C6.05238 71.6542 5.32093 70.9194 5.32093 70.0166V11.825C5.32093 10.9222 6.05238 10.1875 6.95206 10.1875H161.048C161.947 10.1875 162.678 10.9222 162.678 11.825V70.0166H162.679Z" fill="#1E8135"/>
<rect x="4" y="10" width="159" height="62" fill="white"/>
<path d="M25.1406 30.3535V56H20.0781V36.1895L13.9961 38.123V34.1328L24.5957 30.3535H25.1406ZM38.6582 41.0059H41.3652C42.2324 41.0059 42.9473 40.8594 43.5098 40.5664C44.0723 40.2617 44.4883 39.8398 44.7578 39.3008C45.0391 38.75 45.1797 38.1113 45.1797 37.3848C45.1797 36.7285 45.0508 36.1484 44.793 35.6445C44.5469 35.1289 44.166 34.7305 43.6504 34.4492C43.1348 34.1562 42.4844 34.0098 41.6992 34.0098C41.0781 34.0098 40.5039 34.1328 39.9766 34.3789C39.4492 34.625 39.0273 34.9707 38.7109 35.416C38.3945 35.8613 38.2363 36.4004 38.2363 37.0332H33.1562C33.1562 35.627 33.5312 34.4023 34.2812 33.3594C35.043 32.3164 36.0625 31.502 37.3398 30.916C38.6172 30.3301 40.0234 30.0371 41.5586 30.0371C43.293 30.0371 44.8105 30.3184 46.1113 30.8809C47.4121 31.4316 48.4258 32.2461 49.1523 33.3242C49.8789 34.4023 50.2422 35.7383 50.2422 37.332C50.2422 38.1406 50.0547 38.9258 49.6797 39.6875C49.3047 40.4375 48.7656 41.1172 48.0625 41.7266C47.3711 42.3242 46.5273 42.8047 45.5312 43.168C44.5352 43.5195 43.416 43.6953 42.1738 43.6953H38.6582V41.0059ZM38.6582 44.8555V42.2363H42.1738C43.5684 42.2363 44.793 42.3945 45.8477 42.7109C46.9023 43.0273 47.7871 43.4844 48.502 44.082C49.2168 44.668 49.7559 45.3652 50.1191 46.1738C50.4824 46.9707 50.6641 47.8555 50.6641 48.8281C50.6641 50.0234 50.4355 51.0898 49.9785 52.0273C49.5215 52.9531 48.877 53.7383 48.0449 54.3828C47.2246 55.0273 46.2637 55.5195 45.1621 55.8594C44.0605 56.1875 42.8594 56.3516 41.5586 56.3516C40.4805 56.3516 39.4199 56.2051 38.377 55.9121C37.3457 55.6074 36.4082 55.1562 35.5645 54.5586C34.7324 53.9492 34.0645 53.1875 33.5605 52.2734C33.0684 51.3477 32.8223 50.252 32.8223 48.9863H37.9023C37.9023 49.6426 38.0664 50.2285 38.3945 50.7441C38.7227 51.2598 39.1738 51.6641 39.748 51.957C40.334 52.25 40.9844 52.3965 41.6992 52.3965C42.5078 52.3965 43.1992 52.25 43.7734 51.957C44.3594 51.6523 44.8047 51.2305 45.1094 50.6914C45.4258 50.1406 45.584 49.502 45.584 48.7754C45.584 47.8379 45.4141 47.0879 45.0742 46.5254C44.7344 45.9512 44.248 45.5293 43.6152 45.2598C42.9824 44.9902 42.2324 44.8555 41.3652 44.8555H38.6582ZM54.6016 53.5566C54.6016 52.8066 54.8594 52.1797 55.375 51.6758C55.9023 51.1719 56.5996 50.9199 57.4668 50.9199C58.334 50.9199 59.0254 51.1719 59.541 51.6758C60.0684 52.1797 60.332 52.8066 60.332 53.5566C60.332 54.3066 60.0684 54.9336 59.541 55.4375C59.0254 55.9414 58.334 56.1934 57.4668 56.1934C56.5996 56.1934 55.9023 55.9414 55.375 55.4375C54.8594 54.9336 54.6016 54.3066 54.6016 53.5566ZM69.7715 41.0059H72.4785C73.3457 41.0059 74.0605 40.8594 74.623 40.5664C75.1855 40.2617 75.6016 39.8398 75.8711 39.3008C76.1523 38.75 76.293 38.1113 76.293 37.3848C76.293 36.7285 76.1641 36.1484 75.9062 35.6445C75.6602 35.1289 75.2793 34.7305 74.7637 34.4492C74.248 34.1562 73.5977 34.0098 72.8125 34.0098C72.1914 34.0098 71.6172 34.1328 71.0898 34.3789C70.5625 34.625 70.1406 34.9707 69.8242 35.416C69.5078 35.8613 69.3496 36.4004 69.3496 37.0332H64.2695C64.2695 35.627 64.6445 34.4023 65.3945 33.3594C66.1562 32.3164 67.1758 31.502 68.4531 30.916C69.7305 30.3301 71.1367 30.0371 72.6719 30.0371C74.4062 30.0371 75.9238 30.3184 77.2246 30.8809C78.5254 31.4316 79.5391 32.2461 80.2656 33.3242C80.9922 34.4023 81.3555 35.7383 81.3555 37.332C81.3555 38.1406 81.168 38.9258 80.793 39.6875C80.418 40.4375 79.8789 41.1172 79.1758 41.7266C78.4844 42.3242 77.6406 42.8047 76.6445 43.168C75.6484 43.5195 74.5293 43.6953 73.2871 43.6953H69.7715V41.0059ZM69.7715 44.8555V42.2363H73.2871C74.6816 42.2363 75.9062 42.3945 76.9609 42.7109C78.0156 43.0273 78.9004 43.4844 79.6152 44.082C80.3301 44.668 80.8691 45.3652 81.2324 46.1738C81.5957 46.9707 81.7773 47.8555 81.7773 48.8281C81.7773 50.0234 81.5488 51.0898 81.0918 52.0273C80.6348 52.9531 79.9902 53.7383 79.1582 54.3828C78.3379 55.0273 77.377 55.5195 76.2754 55.8594C75.1738 56.1875 73.9727 56.3516 72.6719 56.3516C71.5938 56.3516 70.5332 56.2051 69.4902 55.9121C68.459 55.6074 67.5215 55.1562 66.6777 54.5586C65.8457 53.9492 65.1777 53.1875 64.6738 52.2734C64.1816 51.3477 63.9355 50.252 63.9355 48.9863H69.0156C69.0156 49.6426 69.1797 50.2285 69.5078 50.7441C69.8359 51.2598 70.2871 51.6641 70.8613 51.957C71.4473 52.25 72.0977 52.3965 72.8125 52.3965C73.6211 52.3965 74.3125 52.25 74.8867 51.957C75.4727 51.6523 75.918 51.2305 76.2227 50.6914C76.5391 50.1406 76.6973 49.502 76.6973 48.7754C76.6973 47.8379 76.5273 47.0879 76.1875 46.5254C75.8477 45.9512 75.3613 45.5293 74.7285 45.2598C74.0957 44.9902 73.3457 44.8555 72.4785 44.8555H69.7715ZM102.484 40.9531V45.3828C102.484 47.3047 102.279 48.9629 101.869 50.3574C101.459 51.7402 100.867 52.877 100.094 53.7676C99.332 54.6465 98.4238 55.2969 97.3691 55.7188C96.3145 56.1406 95.1426 56.3516 93.8535 56.3516C92.8223 56.3516 91.8613 56.2227 90.9707 55.9648C90.0801 55.6953 89.2773 55.2793 88.5625 54.7168C87.8594 54.1543 87.25 53.4453 86.7344 52.5898C86.2305 51.7227 85.8438 50.6914 85.5742 49.4961C85.3047 48.3008 85.1699 46.9297 85.1699 45.3828V40.9531C85.1699 39.0312 85.375 37.3848 85.7852 36.0137C86.207 34.6309 86.7988 33.5 87.5605 32.6211C88.334 31.7422 89.248 31.0977 90.3027 30.6875C91.3574 30.2656 92.5293 30.0547 93.8184 30.0547C94.8496 30.0547 95.8047 30.1895 96.6836 30.459C97.5742 30.7168 98.377 31.1211 99.0918 31.6719C99.8066 32.2227 100.416 32.9316 100.92 33.7988C101.424 34.6543 101.811 35.6797 102.08 36.875C102.35 38.0586 102.484 39.418 102.484 40.9531ZM97.4043 46.0508V40.2676C97.4043 39.3418 97.3516 38.5332 97.2461 37.8418C97.1523 37.1504 97.0059 36.5645 96.8066 36.084C96.6074 35.5918 96.3613 35.1934 96.0684 34.8887C95.7754 34.584 95.4414 34.3613 95.0664 34.2207C94.6914 34.0801 94.2754 34.0098 93.8184 34.0098C93.2441 34.0098 92.7344 34.1211 92.2891 34.3438C91.8555 34.5664 91.4863 34.9238 91.1816 35.416C90.877 35.8965 90.6426 36.541 90.4785 37.3496C90.3262 38.1465 90.25 39.1191 90.25 40.2676V46.0508C90.25 46.9766 90.2969 47.791 90.3906 48.4941C90.4961 49.1973 90.6484 49.8008 90.8477 50.3047C91.0586 50.7969 91.3047 51.2012 91.5859 51.5176C91.8789 51.8223 92.2129 52.0449 92.5879 52.1855C92.9746 52.3262 93.3965 52.3965 93.8535 52.3965C94.416 52.3965 94.9141 52.2852 95.3477 52.0625C95.793 51.8281 96.168 51.4648 96.4727 50.9727C96.7891 50.4688 97.0234 49.8125 97.1758 49.0039C97.3281 48.1953 97.4043 47.2109 97.4043 46.0508ZM106.387 53.5566C106.387 52.8066 106.645 52.1797 107.16 51.6758C107.688 51.1719 108.385 50.9199 109.252 50.9199C110.119 50.9199 110.811 51.1719 111.326 51.6758C111.854 52.1797 112.117 52.8066 112.117 53.5566C112.117 54.3066 111.854 54.9336 111.326 55.4375C110.811 55.9414 110.119 56.1934 109.252 56.1934C108.385 56.1934 107.688 55.9414 107.16 55.4375C106.645 54.9336 106.387 54.3066 106.387 53.5566ZM121.557 41.0059H124.264C125.131 41.0059 125.846 40.8594 126.408 40.5664C126.971 40.2617 127.387 39.8398 127.656 39.3008C127.938 38.75 128.078 38.1113 128.078 37.3848C128.078 36.7285 127.949 36.1484 127.691 35.6445C127.445 35.1289 127.064 34.7305 126.549 34.4492C126.033 34.1562 125.383 34.0098 124.598 34.0098C123.977 34.0098 123.402 34.1328 122.875 34.3789C122.348 34.625 121.926 34.9707 121.609 35.416C121.293 35.8613 121.135 36.4004 121.135 37.0332H116.055C116.055 35.627 116.43 34.4023 117.18 33.3594C117.941 32.3164 118.961 31.502 120.238 30.916C121.516 30.3301 122.922 30.0371 124.457 30.0371C126.191 30.0371 127.709 30.3184 129.01 30.8809C130.311 31.4316 131.324 32.2461 132.051 33.3242C132.777 34.4023 133.141 35.7383 133.141 37.332C133.141 38.1406 132.953 38.9258 132.578 39.6875C132.203 40.4375 131.664 41.1172 130.961 41.7266C130.27 42.3242 129.426 42.8047 128.43 43.168C127.434 43.5195 126.314 43.6953 125.072 43.6953H121.557V41.0059ZM121.557 44.8555V42.2363H125.072C126.467 42.2363 127.691 42.3945 128.746 42.7109C129.801 43.0273 130.686 43.4844 131.4 44.082C132.115 44.668 132.654 45.3652 133.018 46.1738C133.381 46.9707 133.562 47.8555 133.562 48.8281C133.562 50.0234 133.334 51.0898 132.877 52.0273C132.42 52.9531 131.775 53.7383 130.943 54.3828C130.123 55.0273 129.162 55.5195 128.061 55.8594C126.959 56.1875 125.758 56.3516 124.457 56.3516C123.379 56.3516 122.318 56.2051 121.275 55.9121C120.244 55.6074 119.307 55.1562 118.463 54.5586C117.631 53.9492 116.963 53.1875 116.459 52.2734C115.967 51.3477 115.721 50.252 115.721 48.9863H120.801C120.801 49.6426 120.965 50.2285 121.293 50.7441C121.621 51.2598 122.072 51.6641 122.646 51.957C123.232 52.25 123.883 52.3965 124.598 52.3965C125.406 52.3965 126.098 52.25 126.672 51.957C127.258 51.6523 127.703 51.2305 128.008 50.6914C128.324 50.1406 128.482 49.502 128.482 48.7754C128.482 47.8379 128.312 47.0879 127.973 46.5254C127.633 45.9512 127.146 45.5293 126.514 45.2598C125.881 44.9902 125.131 44.8555 124.264 44.8555H121.557ZM154.27 40.9531V45.3828C154.27 47.3047 154.064 48.9629 153.654 50.3574C153.244 51.7402 152.652 52.877 151.879 53.7676C151.117 54.6465 150.209 55.2969 149.154 55.7188C148.1 56.1406 146.928 56.3516 145.639 56.3516C144.607 56.3516 143.646 56.2227 142.756 55.9648C141.865 55.6953 141.062 55.2793 140.348 54.7168C139.645 54.1543 139.035 53.4453 138.52 52.5898C138.016 51.7227 137.629 50.6914 137.359 49.4961C137.09 48.3008 136.955 46.9297 136.955 45.3828V40.9531C136.955 39.0312 137.16 37.3848 137.57 36.0137C137.992 34.6309 138.584 33.5 139.346 32.6211C140.119 31.7422 141.033 31.0977 142.088 30.6875C143.143 30.2656 144.314 30.0547 145.604 30.0547C146.635 30.0547 147.59 30.1895 148.469 30.459C149.359 30.7168 150.162 31.1211 150.877 31.6719C151.592 32.2227 152.201 32.9316 152.705 33.7988C153.209 34.6543 153.596 35.6797 153.865 36.875C154.135 38.0586 154.27 39.418 154.27 40.9531ZM149.189 46.0508V40.2676C149.189 39.3418 149.137 38.5332 149.031 37.8418C148.938 37.1504 148.791 36.5645 148.592 36.084C148.393 35.5918 148.146 35.1934 147.854 34.8887C147.561 34.584 147.227 34.3613 146.852 34.2207C146.477 34.0801 146.061 34.0098 145.604 34.0098C145.029 34.0098 144.52 34.1211 144.074 34.3438C143.641 34.5664 143.271 34.9238 142.967 35.416C142.662 35.8965 142.428 36.541 142.264 37.3496C142.111 38.1465 142.035 39.1191 142.035 40.2676V46.0508C142.035 46.9766 142.082 47.791 142.176 48.4941C142.281 49.1973 142.434 49.8008 142.633 50.3047C142.844 50.7969 143.09 51.2012 143.371 51.5176C143.664 51.8223 143.998 52.0449 144.373 52.1855C144.76 52.3262 145.182 52.3965 145.639 52.3965C146.201 52.3965 146.699 52.2852 147.133 52.0625C147.578 51.8281 147.953 51.4648 148.258 50.9727C148.574 50.4688 148.809 49.8125 148.961 49.0039C149.113 48.1953 149.189 47.2109 149.189 46.0508Z" fill="#338533"/>
</svg>
